<svg xmlns="http://www.w3.org/2000/svg" viewBox="0 0 2570.19 3919.01"><defs><style>.cls-1{fill:#fff;}</style></defs><g id="Layer_2" data-name="Layer 2"><g id="Layer_3" data-name="Layer 3"><path class="cls-1" d="M2562.81,964.64l-.22-1.37-.42-1.33c-2.32-7.5-1.53-167.49-467-397-36.65-18.07-136.61-47.58-177.32-50.5-63.63-4.56-180.93-9.92-289.35,1.42a7.58,7.58,0,0,1-8.36-7.56V484.94c9.19-12.23,25.87-40.1,28.56-83.7,1.26-20.41-9.87-63.67-31.39-122.54-5.75-15.76-10.73-29.36-13.56-38.2-15.75-49.18-44.22-111.93-94-161.09a259.55,259.55,0,0,0-89.59-57.68C1382.57,7.19,1339-.1,1290.61,0c-61.31.15-116.47,6.9-163.94,20.05-43.63,12.09-82.23,30-114.75,53.22-53.06,37.89-90.8,89-118.77,161-14.61,37.56-32.91,185.37-34.95,202.1l-.12,1,0,1c-.07,2.51.06,15.93,9.13,33.08,9.77,18.47,10.85,31.29,33,44.13v91.85c-41,9.82-141.4,41-268.31,76.5C419,743.39,273.68,788.27,206,829c-41.59,25.07-75,54.52-102.28,90-25.9,33.8-67.81,102.09-82.54,147.86-24.67,76.71-21,172.11-21,319,0,129,55.12,552.05,120.86,1011.34,36.92,257.94,75.34,484.27,114.2,672.7,45.91,222.63,90.9,383.66,133.73,478.67,3,9.49,21.19,63,65.17,125a509.19,509.19,0,0,0,96.78,103.08,482.85,482.85,0,0,0,153.27,82.41c117.58,38.18,210.93,59.91,310.3,59.9,105.29,0,217.33-24.4,372-79.49l10.86-3.87c82.66-29.43,162.68-57.94,238.65-87.26.34-.13.69-.25,1-.4,56.5-21.82,110.76-44.1,162.17-67.58,134.62-61.45,241.32-103.58,328-179.47,26.62-23.31,50.47-94.35,80.42-172.27,26.64-69.33,55-161.23,84.33-273.14,53.86-205.61,109.31-471.59,160.35-769.18,48.12-280.58,88-565.52,112.27-802.34C2562.75,1306.6,2580.68,1072.48,2562.81,964.64ZM2392,2279.45c-50.84,296.44-106,561.23-159.6,765.73-78.91,301.21-131.47,381.9-155.78,403.18-83.59,73.2-183.49,135.12-314.39,194.88q-40,18.26-82.34,35.69a42.3,42.3,0,0,1-58.4-36.94c-19.67-388.28,7.54-1816,7.85-1831.82a20.43,20.43,0,0,0-20-20.82h-.4a20.44,20.44,0,0,0-20.42,20c-1.27,65.9-28.61,1501.27-6.3,1858.28a66.09,66.09,0,0,1-42.9,66.07c-56.73,21.08-115.48,42-175.62,63.42L1352.8,3801c-148.59,52.93-253.66,76-351.32,77.1-2.41,0-4.79,0-7.19,0-80.94,0-157.37-15.63-241.33-40.43a102.62,102.62,0,0,1-66.76-61.51c-67.32-175.11-132.6-459.16-177.41-677.57-54.2-264.19-90.94-492-91.31-494.25a20.43,20.43,0,0,0-40.34,6.48c.36,2.28,37.22,230.81,91.59,495.83,32,155.77,63.63,293.53,94.15,409.47,24.06,91.45,47.49,169.51,70,233.43,6.92,19.64-14.72,37.08-32.44,26.16a434.65,434.65,0,0,1-43.23-30.38,467.36,467.36,0,0,1-88.86-94.18c-44-61.67-60.52-115.19-60.67-115.7l-.4-1.32-.56-1.25c-104.09-229.7-198.32-813.75-245.23-1141.45C96,1933.92,52,1489.93,52,1362.32c0-142.39,9.94-234,33.24-306.48C112.08,972.46,158.1,913.43,230.1,870c125.09-75.37,508.16-174.14,653.52-210a88.18,88.18,0,0,1,75.12,16.06c19.32,15,46.13,32.19,81.27,47.28,47.62,20.44,101.07,32.9,158.85,37q21.41,1.53,43.63,1.53c59.36,0,122.88-8.18,189.43-24.44a20.43,20.43,0,1,0-9.69-39.7c-78.19,19.1-151.65,26.5-218.34,22-53-3.58-101.79-14.63-145.15-32.86a339,339,0,0,1-76.34-44.2A68.1,68.1,0,0,1,956.12,589V506.22a20.44,20.44,0,0,0-11.42-18.34h0C904.11,468,899.49,444.25,899,439.55c5.58-45.39,21.6-163.09,32.27-190.51,33-84.8,94.65-180.66,276.38-203.23A34.94,34.94,0,0,1,1245.56,71c2.16,7.63,4.4,16.42,6.61,26.41,17.22,77.92,19.34,168.16,18.07,230.22a20.57,20.57,0,0,0,20,21.05h.43a20.44,20.44,0,0,0,20.42-20c3-143.47-14.61-230.84-28.59-276.89a8.48,8.48,0,0,1,8.1-10.93h1.23c177.13,0,235.42,107.2,269,212.11,3.08,9.62,8.18,23.59,14.09,39.75,7.63,20.88,16.28,44.54,22.93,65.28,10,31.24,10.14,39.4,10.06,40.72-2.19,35.46-15.69,55.75-20.84,62.28-83.8,39.93-178.38,61.44-243.39,72.48-72,12.22-124.39,14.63-124.91,14.65a20.43,20.43,0,0,0,.88,40.84c.3,0,.6,0,.9,0,2.21-.09,55-2.5,129.33-15.08,55.63-9.41,132.16-26.25,206.61-55.24a16.72,16.72,0,0,1,22.77,15.59v18.93a8.94,8.94,0,0,0,10.17,8.85l13.09-1.83c112.77-15.72,244.13-9.86,312.4-5a272.45,272.45,0,0,1,101.44,27.52C2119.28,633.46,2210,685.64,2286,737.83c60.75,41.73,112.27,83.55,153.12,124.28,11.13,11.1,20.86,21.51,29.33,31.18,15.53,17.7,4.11,45.52-19.37,47.29-11,.83-23.15,1.95-36.65,3.42-118.83,12.89-303.07,48.29-547.6,105.22-194.16,45.2-378.82,102.33-548.87,169.81-136.19,54-263.38,114.8-378,180.61-196,112.49-286.52,199.78-290.28,203.44a20.43,20.43,0,1,0,28.52,29.27c.88-.86,90.53-87.33,282.1-197.27,113-64.84,238.39-124.75,372.77-178.07,168.17-66.73,350.88-123.25,543.07-168,235.33-54.79,414.3-89.5,532-103.19,32.78-3.81,57.15-5.51,75.16-6.05a45.27,45.27,0,0,1,46.51,42.74c4.36,77.67-.36,198.62-13.79,352.49a49.55,49.55,0,0,1-40,44.34c-94.25,18.07-209.72,51.13-344.26,98.62-119.36,42.14-210,80.56-210.94,80.94a20.43,20.43,0,1,0,16,37.61c3.32-1.41,312.1-131.88,547.34-177.09a18.59,18.59,0,0,1,22,20.16l0,.25C2479.72,1715.77,2440,1999.75,2392,2279.45Z"/><path class="cls-1" d="M726.26,2729.72c-44.52-372.79-72.32-715.89-72.59-719.31a20.44,20.44,0,0,0-40.74,3.28c.28,3.43,28.13,347.2,72.74,720.75,26.22,219.56,53,406.36,79.65,555.2,33.55,187.5,67.2,315.82,100,381.42a20.43,20.43,0,1,0,36.55-18.27C845.68,3540.43,785,3221.23,726.26,2729.72Z"/><path class="cls-1" d="M652.34,1306.47a20.43,20.43,0,0,0,27.59-8.52c10.55-19.9,47.4-72.39,111.35-128.6,47-41.28,101.34-78.74,161.62-111.34,75.48-40.81,160.5-74.09,252.69-98.9A20.43,20.43,0,1,0,1195,919.65c-95.91,25.81-184.44,60.56-263.11,103.29-63.18,34.3-120.2,73.81-169.48,117.41-84.73,75-117.27,136-118.62,138.58A20.41,20.41,0,0,0,652.34,1306.47Z"/><path class="cls-1" d="M1560.89,858.68a20.81,20.81,0,0,0,5.49-.75c168.87-47,479.54-75.68,482.66-76a20.43,20.43,0,0,0-3.71-40.7c-.79.08-80,7.34-179.21,20.4-133.64,17.58-238.17,36.72-310.69,56.89a20.43,20.43,0,0,0,5.46,40.12Z"/></g></g></svg>