<svg xmlns="http://www.w3.org/2000/svg" viewBox="0 0 3950.59 3761.18"><defs><style>.cls-1{fill:#fff;}</style></defs><g id="Layer_2" data-name="Layer 2"><g id="Outline_copy" data-name="Outline copy"><path class="cls-1" d="M3945.8,2539.58a101.53,101.53,0,0,0-50.3-59.91l-659.72-343.24a102.25,102.25,0,0,0-53.85-11.31,1279.81,1279.81,0,0,1-139.95,1.12c-26.21-1.24-62.09-6.49-106.68-15.58-133.54-58.34-258.79-115.1-404.59-183.35,12.77-273.21,7-464.38-17.35-570.77-35.1-153.33-135.4-386.82-298.12-694C2080.5,408.22,1935.09,164.72,1860.4,42.21a88,88,0,0,0-150.32,0c-120.51,197.66-294,497.85-426.22,758.47L810.14,194.92c-11.7-15.56-23.36-30.25-37.37-39.11-18.3-11.59-38.1-11.29-57.28.86l-.69.44-.64.5c-1.73,1.36-41.56,33.93,9.75,102.19l496.42,670.55c-50,105.62-89.92,199.6-118.8,279.69L106.4,705.17c-17.29-9-34.18-17.23-50.66-19.18-21.51-2.55-39.24,6.27-51.29,25.51l-.43.69-.37.74c-1,2-22.8,48.45,52.79,87.89L1056.14,1361c-36.86,168-29.34,538.23,22.38,1100.85,41.26,448.83,99,890.23,122,1059.18a95.3,95.3,0,0,0,94.1,82.18h735.87a16.15,16.15,0,0,0,12.17,0h233.27A95.3,95.3,0,0,0,2370,3521c18.74-138.08,60.76-458.19,98-815.62,30.58,45.76,60.7,91.14,89.87,135.37v1.85l2.26,2.25c14,37.46,23.65,68.26,28.68,91.59a1281.59,1281.59,0,0,1,21.87,138.24,102.15,102.15,0,0,0,20,51.26l446.87,594.44a101.51,101.51,0,0,0,67.35,39.77,103.61,103.61,0,0,0,14.55,1,101.5,101.5,0,0,0,61.2-20.53l220.82-166a102.21,102.21,0,0,0,20.28-143.1l-446.87-594.44a102.19,102.19,0,0,0-43.69-33.46,1279.82,1279.82,0,0,1-126.72-59.42c-23.1-12.43-53.2-32.65-89.49-60.11-85.66-99.16-164.09-192.24-254.14-301.61a15.44,15.44,0,0,0-1.64-1.69q10.41-119.33,18-226.23c106.31,62.08,210.67,123.91,310.57,184,29.4,28.23,51.81,52.24,66.62,71.39a1279.59,1279.59,0,0,1,79.41,115.25,102.22,102.22,0,0,0,40.18,37.6l659.73,343.23a102.22,102.22,0,0,0,137.83-43.49L3939,2617.5A101.54,101.54,0,0,0,3945.8,2539.58ZM2338,3516.65a62.9,62.9,0,0,1-62.11,54.23H2052.68V3205h85.78a73.14,73.14,0,0,0,72.22-63.07c13.82-101.83,56.53-446.53,87.83-813.78,37.7-442.36,42.85-727.66,15.31-848-58.09-253.78-348.47-747.18-470.61-947.53a67.89,67.89,0,0,0-115.94,0c-53.8,88.24-158.54,263.62-255.59,446.83-117.33,221.47-189.67,389.93-215,500.7-27.54,120.3-22.39,405.6,15.31,848,5.8,68.09,12,135.39,18.33,200.52a16.07,16.07,0,0,0,1.92,19.68c27.28,277.65,56.58,512.53,67.58,593.58A73.14,73.14,0,0,0,1432,3205h588.38v365.88H1294.58a62.89,62.89,0,0,1-62.1-54.23c-22.9-168.74-80.6-609.59-121.8-1057.8-23.27-253.08-37.71-470.19-42.93-645.28-6.28-210.62.73-362,20.83-449.79a16.62,16.62,0,0,0,1.57-2.27,16.16,16.16,0,0,0-6.2-22L72,772.53l-.44-.23c-42.25-22-39.94-41-38.93-44.95,9.68-14.33,21.8-12.82,58.93,6.5l1011.12,513a16.15,16.15,0,0,0,21.7-7.09,16.31,16.31,0,0,0,1.29-3.53,16.11,16.11,0,0,0,2.29-4.28c29.56-83.58,71.83-183.33,125.66-296.48v0a13.84,13.84,0,0,0,.59-1.43.19.19,0,0,0,0-.08,11.83,11.83,0,0,0,.4-1.32c.14-.53.25-1.06.34-1.6a.36.36,0,0,1,0-.1c.06-.42.1-.84.13-1.26,0-.1,0-.2,0-.3,0-.35,0-.7,0-1.05v-.53c0-.27,0-.54-.08-.8s0-.53-.08-.79-.07-.35-.1-.53c-.06-.34-.12-.68-.2-1l-.09-.3c-.11-.4-.22-.8-.37-1.2l0-.12c-.18-.48-.37-1-.6-1.42a13.24,13.24,0,0,0-.68-1.29.43.43,0,0,1,0-.07c-.27-.44-.55-.87-.86-1.29v0L749.79,240.49c-28.62-38.06-18.3-54.26-15.7-57.35,14.91-8.74,25.19-2.14,50.34,31.31L1274.09,840.6l.17.19c.21.26.43.52.66.77s.28.31.43.45.44.43.67.63l.55.49.61.47c.24.17.48.35.73.51l.55.34c.28.18.57.34.86.49l.24.14.32.14c.29.14.59.27.88.39l.67.25.77.25.81.22.67.14c.3.06.6.12.9.16l.62.07c.31,0,.62.06.92.07h.67c.29,0,.57,0,.85,0s.51,0,.77-.06.49-.05.73-.09l.87-.15.63-.14c.3-.07.6-.16.9-.25l.58-.19c.3-.1.58-.21.87-.33l.61-.27.76-.38c.24-.12.47-.25.7-.39s.41-.25.61-.38l.79-.55a3.06,3.06,0,0,1,.29-.21l.2-.18c.26-.21.51-.42.75-.65l.48-.44c.21-.21.41-.43.61-.65s.34-.38.5-.58.3-.38.45-.58l.53-.75c.12-.17.22-.35.33-.53s.35-.59.5-.89c0-.07.09-.14.13-.22C1434.35,573.05,1614,261.9,1737.64,59a55.74,55.74,0,0,1,95.19,0c74.5,122.2,219.54,365.06,353.88,618.66,161.4,304.66,260.71,535.49,295.18,686.07,20.1,87.83,27.11,239.17,20.83,449.82-2.71,90.88-7.91,193.1-15.53,305.77a16.1,16.1,0,0,0-.88,12.88q-10.39,151.25-26.52,326.63c-6.06,66-12.48,131.75-19.09,196.54a16.08,16.08,0,0,0-.42,4C2402,3033.37,2357.45,3373.26,2338,3516.65Zm-432.73-700.13H1352.89c-9-80.71-18.52-169.94-27.71-263.11H1625.5a16.14,16.14,0,1,0,0-32.28H1322c-38.23-394.3-69.54-848.21-36.51-1021.19h543.72a16.15,16.15,0,0,0,0-32.29H1293c28.44-108.05,98-267,207.21-473.05,96.66-182.45,201-357.21,254.63-445.14a35.6,35.6,0,0,1,60.8,0c48.95,80.29,140.22,233,229.3,397.83H1672.49a16.15,16.15,0,1,0,0,32.29h389.79q4,7.5,8,15c116,219,187.36,384.78,212.09,492.79,13.51,59,17.91,158.19,16.16,279.88h-881.3a16.15,16.15,0,0,0,0,32.29h179.54c-.41,3.23-9.84,80,3.71,182.21,8,60.13,22.3,116.55,42.6,167.69,25.53,64.29,60.6,120.37,104.25,166.67,103.65,109.95,254.57,165.46,449.36,165.45q27.27,0,55.71-1.45c-27.08,286-58.75,547.31-73.69,657.46a40.74,40.74,0,0,1-40.23,35.12H1432a40.73,40.73,0,0,1-40.22-35.12c-8-59.17-20.89-162-35.27-288.78h548.75a16.15,16.15,0,1,0,0-32.29Zm350.16-368.9c-214.21,11.84-377.16-39.76-484.47-153.48-40.77-43.2-73.62-95.68-97.64-156-19.35-48.56-33-102.29-40.73-159.68-13.11-98-4-173.71-3.81-174.88a16.13,16.13,0,0,0,0-4h669.15C2293.7,1988,2276.2,2223.84,2255.43,2447.62ZM2730.6,2705.3l.87,1.52,2.63,2c38.23,29,70.21,50.48,95.07,63.86a1312.81,1312.81,0,0,0,130,60.95,70,70,0,0,1,29.88,22.89L3435.94,3451a69.46,69.46,0,0,1,13.33,51.82q-.27,1.93-.66,3.84c-27.84-4.22-96.76-17.14-175.73-50.28-59.84-25.12-113.69-56.79-160-94.13-57.65-46.44-103.85-101.88-137.32-164.78a16.15,16.15,0,0,0-28.51,15.17c35.63,66.95,84.77,125.88,146.07,175.16,48.85,39.26,105.47,72.49,168.27,98.75,74.58,31.19,139.4,45,173,50.58a70.1,70.1,0,0,1-12.25,11.76l-220.81,166a69.91,69.91,0,0,1-97.89-13.87l-446.87-594.44a69.86,69.86,0,0,1-13.69-35.07,1310.62,1310.62,0,0,0-22.43-141.83c-5.38-25-15.54-57.49-30.21-96.67v-1.91l-1.67-2.53-.6-1.57-1.3-1.31c-36.61-55.53-74.74-112.89-113.4-170.58,6.49-63.73,12.8-128.41,18.76-193.25q1.64-17.86,3.21-35.43C2577.46,2526.05,2650.91,2613,2730.6,2705.3Zm1179.76-102.7-127.51,245.06a70,70,0,0,1-94.28,29.76l-659.73-343.24a69.89,69.89,0,0,1-27.48-25.72,1314.28,1314.28,0,0,0-81.47-118.24c-15.15-19.57-37.38-43.57-66.14-71.4v-9.28h-11.67c-103.64-62.33-212-126.5-322.43-190.88q5.55-82.1,9.35-156.5c141.23,66,263.69,121.44,394.09,178.4l1.51.86,2.53.52c47,9.65,85.13,15.21,113.32,16.55a1312.59,1312.59,0,0,0,143.59-1.16,69.92,69.92,0,0,1,36.84,7.75l659.72,343.23a70.36,70.36,0,0,1,14.83,10.33c-27.34,13.38-89.12,40.75-169,58.31-63.38,13.92-125.64,19-185,15.21-73.87-4.77-143.57-23.48-207.16-55.64a16.15,16.15,0,0,0-14.57,28.82c67.68,34.22,141.8,54.1,220.29,59.08q19.83,1.26,40,1.26c50.22,0,102-5.83,154.42-17.42,87.45-19.34,152.81-49.24,179.38-62.61.45,1.2.88,2.41,1.27,3.64A69.46,69.46,0,0,1,3910.36,2602.6Z"/></g></g></svg>