<svg xmlns="http://www.w3.org/2000/svg" viewBox="0 0 4047.19 3767.62"><defs><style>.cls-1{fill:#fff;}</style></defs><g id="Layer_2" data-name="Layer 2"><g id="Layer_2-2" data-name="Layer 2"><path class="cls-1" d="M3967.19,1797c-41.66-112.06-81-160.12-106-200-15.24-24.29-53.11-66.37-79-54l-44.89,56.69a388.09,388.09,0,0,0-10-50.41c-6.84-25.12-15.92-46.64-27-64-14.88-23.3-33.43-39.23-55.15-47.33-35.4-13.22-60.19-25.9-82.13-51.58-22.72-26.61-15-12.91-40.82-83.4-12.31-33.61-41.76-127.08-48.75-169.14-11.1-66.9-28.68-140.72-70.9-232.19C3353.91,796.31,3275.23,691.58,3162,581.49c-147.51-143.42-243.39-234.11-321.51-270-81.95-37.71-158.21-40.83-273.64-45.55-41-1.68-87.46-3.58-141.57-7.26-210.18-14.29-269.88-42.19-352.9-102.29-56.62-41-120.79-87.44-235.32-126.89l0,0-.13,0a531,531,0,0,0-194.14-29c-56.17,2.18-114.21,13.48-172.5,33.6C1364.37,70.53,1275.16,129.55,1210,172.65c-9.22,6.1-17.93,11.87-26.18,17.23-60.35,39.25-107.35,65.41-158.65,131.12-57,73-76,131.6-84,179-9.93,58.7-15,99-60,135-34.61,27.69-79.35,61.16-121.11,56.25-34.07-4-49.81-35.77-76.94-96.31C661,545.59,633.5,484.16,580.6,428.82c-47.46-49.66-127.49-59.18-225.34-26.8-50.63,16.75-103.47,44.52-144.95,76.17-20.49,15.63-37.23,31.36-49.75,46.75-14.38,17.69-22.64,34.43-24.55,49.77a602.19,602.19,0,0,0-4.69,72.14,155.36,155.36,0,0,1-36.07,99.29C53.39,796,24.88,848.91,10.51,903.45-1.75,950-1.08,988,1.64,1011.76a43.47,43.47,0,0,0,5.42,16.55,20.41,20.41,0,0,0,7.39,22.41l251.06,185.06a592.06,592.06,0,0,1,6.37,72.15c3.1,99.2-12.67,216.44-32.63,364.86q-3,22.64-6.19,46.15c-21.92,164.38-27.73,276.69-18.84,364.14,8.57,84.3,30.68,149.31,73.94,217.37,74,116.5,103.67,209.71,104,210.63l.46,1.44.66,1.37c63.11,130.53,139.26,250.64,226.33,357,73.28,89.5,153.89,168.94,239.61,236.13,86.94,68.14,160.67,109,207.22,131.31,55,26.35,110.51,51,140.07,51.87q5.91.18,11.89.17c68.27,0,144-16.92,211.23-31.95,64.22-14.36,117.88-36.92,151.84-30.66,24.7,4.55,49.49,18.72,78.19,35.12,53.58,30.63,97.42,79.56,201.58,76.12,3.5-.12,29.4-11.07,32.11-11.21a20.36,20.36,0,0,0,23.08,3.94c1.06.37,2.16.74,3.32,1.12,19.1,6.27,58,29.49,103.65,39.42,60.82,13.23,121.85,6.94,186.59-19.21,54.49-22,101.9-54,143.73-82.29,31.57-21.32,52.83-54.73,75.31-63.46a232.17,232.17,0,0,1,29.9-9.31c50.63,38.32,108.48,148.17,148.85,235.56,41.17,89.09,72.38,172.63,79.32,191.52a128.64,128.64,0,0,0,2.63,34.42c9.25,41.1,10.49,76.68,36.51,89.5,12.19,6,49,18.62,64.93,18.62a162.24,162.24,0,0,0,30.18-3.07c26.27-5,58-16.16,96.93-34.21,60.17-27.89,121.4-88.45,181.6-125.11,60.53-36.87,121.13-62,145.42-66.2,11.36-2,20.88.26,31.91,2.84,15.57,3.64,36.94-4.82,60-15,22.37-9.87,68.93-42.87,96-81.86,25.65-36.94,43.89-97.95,92-181,48-82.86,102.18-177.25,150.13-252.39,25.91-40.59,47.24-71.56,65.21-94.67,25.36-32.61,34-15.29,37.89-17.08,34.23-15.91,52.18-7.35,77,4.5,19,9,40.48,19.3,69.38,16.73,40.51-3.62,80.52-95.56,99.36-227.09,16.17-112.93,23-238.21,23-423C4047.19,2138,4018.18,1934.15,3967.19,1797ZM77.56,1046.49c35.57-2.86,63.55,2.16,82,7.5,19,5.5,31.33,12.26,36,15.08a323.87,323.87,0,0,1,55.92,105.6ZM2644.94,3416.68q-53.31-115.41-99.79-182.14c-12.46-17.87,4-41.75,25.13-36.25l.57.15a193.56,193.56,0,0,1,71.3,35.56c23.69,18.78,43.73,43.69,59.56,74,41.56,79.61,20.83,159.09,2.55,229.22l0,.11a3.77,3.77,0,0,1-7.15.46C2683.21,3503.38,2665.27,3460.7,2644.94,3416.68Zm1329-726.77c-21.62,155-49.48,165.43-49.71,165.48-17.76,1.59-31.84-5.13-48.16-12.9-25.64-12.23-57.3-27.32-105.24-7.57-32.42-7.37-180.36-40.71-353.46-75.3-262.59-52.46-454.87-82.62-571.5-89.66a20.43,20.43,0,1,0-2.46,40.78c198.7,12,591.91,92.78,795.69,136.89,40.64,8.8,59.43,56,35.92,90.28-10.2,14.88-21.52,32-34.1,51.72-48.42,75.89-103.06,170.2-151.26,253.41C3442,3325.32,3400.8,3396.38,3376.1,3432c-22,31.65-40.63,51-55.41,57.54-10.11,4.46-18,2.93-32.22-.4-12.76-3-28.64-6.7-48.19-3.32-30.4,5.26-81.25,35.56-161.7,84.56-59.28,36.11-126.46,77-184.53,103.94-66.64,30.88-110.44,40.27-133.91,28.71-9.08-4.47-22.13-14.78-30.61-52.45-1.79-8-2.15-16.84-1.48-26.52,0-.37.07-.73.08-1.1,1.65-21.63,8.31-47.19,15.66-75.37,19.15-73.44,43-164.85-5.86-258.42-35.19-67.4-89.35-112.41-156.65-130.18a252.6,252.6,0,0,0-41.83-7.27c-48.17-36.14-455.56-342.62-647.66-512.85-201-178.14-371.2-381.47-375.66-386.81-1.83-2.27-39.14-48.94-72.56-113.56-30.75-59.45-64.51-146.8-50.76-225.37a20.43,20.43,0,0,0-40.24-7,260.29,260.29,0,0,0-3.78,44.65c0,23.29-27.44,35.68-44.77,20.11L555,1297.91a20.43,20.43,0,0,0-27.3,30.39l827.62,743.47a133.83,133.83,0,0,1,33.14,46q8.7,19.88,19.23,40.21c36,69.49,75.2,117.89,76.85,119.92l.14.17c1.72,2.07,174.95,209.6,380,391.35,145.81,129.21,414.2,335.91,558,445.22,19.65,14.93,15.13,45.5-7.89,54.38l-.59.22c-26.76,10.39-55.78,30-89.39,52.69-80,54.07-179.67,121.34-298.77,95.44-77.79-16.91-98-24.56-102.58-26.61-.22-.2-.45-.41-.69-.61-14.26-11.86-27.76-24.6-39.5-39l-773.59-946a20.43,20.43,0,0,0-31.63,25.86L1821,3239.51c14.9,18.22-2,44.8-24.89,39.17-46.49-11.44-82.78-32.18-116.18-51.26-30.61-17.5-59.53-34-91.06-39.84-42.14-7.76-103.78,6-175.15,22-23.66,5.29-48.39,10.82-73.36,15.72a22.17,22.17,0,0,1-18.45-4.71l-.07-.06c-121.72-100.86-234.42-220.38-335-355.23-80.56-108-153.54-226.1-216.92-350.92-56.45-111.17-94.67-207.22-116.79-268.22-23.91-65.94-34.68-106.25-34.85-106.88a20.43,20.43,0,0,0-39.5,10.44c1.76,6.66,44.41,165.67,154.2,382.13,64.43,127,138.68,247.25,220.67,357.29,82.16,110.26,172.33,210.5,268.88,299,20.49,18.78,6.68,53.06-21.1,52.27l-.72,0c-18.32-.55-58.59-11.06-116.67-38.87-44.7-21.41-115.62-60.76-199.66-126.63C801,3009.53,722.55,2932.19,651.17,2845c-84.75-103.53-158.94-220.47-220.54-347.61-4.27-13.19-35.15-104.25-108-218.86-39.63-62.34-59.89-122-67.78-199.59-8.55-84.15-2.78-193.52,18.7-354.61q3.12-23.49,6.18-46.1c20.21-150.3,36.17-269,33-371.59-1.71-54.74-8.92-101.68-22.06-143.52a364.92,364.92,0,0,0-65.37-122.28l-1.76-2.18-2.28-1.62c-2.68-1.91-67-46.58-175.86-27.6a2.71,2.71,0,0,1-2.1-.51,2.62,2.62,0,0,1-1.06-1.83c-2.32-20.26-2.85-52.89,7.79-93.25,12.83-48.67,38.57-96.25,76.52-141.44h0A196.15,196.15,0,0,0,172.17,647a564.29,564.29,0,0,1,4.38-67.24c1.55-12.44,17.81-38,58.54-69.07,38-29,86.5-54.48,133-69.87,47.51-15.72,134.45-34.52,183,16.25,48,50.25,72.87,105.69,94.79,154.6,13.64,30.44,25.43,56.74,40.9,77.63,18.82,25.42,41.25,39.34,68.56,42.55,50.11,5.89,87.06-16.71,132.87-42.83,25.84-14.73,42.27-42.08,59-64,18.67-24.47,32.79-68.21,38-99,10.62-62.8,14.18-103.14,64-158,51.33-56.53,102.45-108.44,156.92-143.87,8.39-5.45,17.16-11.26,26.45-17.41,63.32-41.89,150-99.26,251-134.11,54.5-18.81,108.59-29.37,160.76-31.39a484,484,0,0,1,100.47,6.58A105.26,105.26,0,0,1,1829,125.09l332.29,1281a20.45,20.45,0,0,0,19.76,15.31,20.71,20.71,0,0,0,5.14-.66,20.43,20.43,0,0,0,14.65-24.9l-319-1229.54c-9.11-35.11,28.15-64.09,60-46.67,41.85,22.94,74.54,46.6,106.62,69.81,43.37,31.4,84.34,61.06,142.85,85,64.89,26.54,142.18,42.1,243.23,49,54.66,3.72,101.41,5.63,142.67,7.32,114.5,4.68,183.62,7.51,258.24,41.84,73.47,33.81,154.26,98.37,298.1,238.23,109.57,106.54,185.43,207.29,231.93,308,39.91,86.47,52,159.41,62.69,223.76,3.21,19.35,6.35,38.21,10.11,56.54a19.39,19.39,0,0,1-10.08,21.13l-1.83,1c-17.62,9.13-43.5,22.58-76.91,40-56.25,29.28-134.64,70.16-233,121.49-167.45,87.4-337,176-338.68,176.89a20.42,20.42,0,1,0,18.92,36.2c193.59-101.16,536.21-280.09,643.8-335.89a12.43,12.43,0,0,1,17.16,6.19c14,33,53,121.92,74.3,146.9,27.55,32.27,58.27,48.15,98.9,63.32,31.29,11.68,48.17,51.62,56.83,83.08a331.22,331.22,0,0,1,7.09,32.4,30.5,30.5,0,0,1-19.55,33.67l-1040.1,384.5a20.43,20.43,0,1,0,14.16,38.32l1051-388.52,28.42-10.62h0l63.37-30.27a15.59,15.59,0,0,1,19.94,5.76c24.19,38.56,70.81,119.46,111.2,228.1,49.29,132.58,74.28,264.78,74.28,392.92C3997.5,2425.56,3989.34,2579.21,3973.9,2689.91Z"/><path class="cls-1" d="M2212.73,1899.68c-35.75-64.67-88.35-119.2-156.33-162.06-53.79-33.92-117.26-60.62-188.64-79.35-120.87-31.7-221.71-29.67-225.93-29.57a20.43,20.43,0,1,0,1,40.84c1,0,99.24-2,214.58,28.25,67.34,17.67,127,42.69,177.22,74.38,62.09,39.15,110,88.7,142.37,147.28,34,61.56,58.81,124,73.64,185.75a618.52,618.52,0,0,1,17.11,160.23c-2.44,95.42-26.21,172.94-48.3,238.12-21.78,64.23-29,120-22.13,170.55,7,51.14,28,91.38,45.6,120.73a20.43,20.43,0,0,0,35-21c-16.53-27.62-34.24-61.72-40.17-105.26-6-44.12.64-93.81,20.34-151.92,23.05-68,47.87-149,50.45-250.19a659.58,659.58,0,0,0-18.23-170.82C2274.66,2030.38,2248.55,1964.45,2212.73,1899.68Z"/><path class="cls-1" d="M1141.33,1025A20.43,20.43,0,0,0,1105,1043.6l341.41,665.91a20.43,20.43,0,1,0,36.35-18.64Z"/></g></g></svg>