<svg xmlns="http://www.w3.org/2000/svg" viewBox="0 0 3559.89 4029.62"><defs><style>.cls-1{fill:#fff;}</style></defs><g id="Layer_2" data-name="Layer 2"><g id="Layer_4" data-name="Layer 4"><path class="cls-1" d="M431.68,1640.86q12.19,80.1,31.05,158.89c10.82,45.18,22.66,87.2,34.73,125.63a20,20,0,0,0,.73,2.31,1742.5,1742.5,0,0,0,69.72,184.82c32.44,72.64,56.88,112.26,57.9,113.91a20.43,20.43,0,1,0,34.72-21.54c-.66-1.06-46.09-75.16-94.45-205.2a244.33,244.33,0,0,1,2.27-175.94,898.58,898.58,0,0,1,43.91-93.19c36.43-67.37,82.52-134.15,137-198.49,68.16-80.51,149.71-157.41,242.38-228.58s188.46-128.42,285.14-170.52c77.25-33.64,155.15-57.67,231.55-71.41,129.45-23.29,211-8.8,212.61-8.51a20.43,20.43,0,0,0,7.64-40.13c-3.54-.67-88.24-16.25-225.06,8-79.76,14.14-161,39-241.45,73.9-100.28,43.5-199.64,102.8-295.31,176.27-95.51,73.34-179.56,152.73-249.84,236-56.37,66.78-104.07,136.18-141.77,206.28-15.75,29.31-28.44,56.25-38.61,80.28-6.73,15.9-29.9,14-33.93-2.8l-.13-.57q-12-50.28-21.31-101.22a130,130,0,0,1,16.34-90.07,1565.55,1565.55,0,0,1,99.22-145.6A1588.3,1588.3,0,0,1,755,1275.39c69.83-67.31,144.06-125.5,220.64-173,149.52-92.67,297.63-164.21,440.21-212.63,143.67-48.79,230.86-56.84,261.68-58,.11,0,.21,0,.32,0,.41,0,.81-.06,1.22-.1l.93-.13,1-.18c.39-.08.77-.17,1.15-.27l.33-.08c.15,0,.29-.11.44-.15q.6-.2,1.2-.42l.76-.31c.35-.15.7-.31,1-.48l.83-.44.86-.51c.3-.19.59-.38.88-.59s.48-.34.71-.52.59-.46.87-.7l.63-.56c.27-.26.54-.52.8-.79l.59-.64c.23-.26.45-.53.67-.81s.39-.5.58-.76.37-.52.54-.79.38-.6.56-.9l.42-.76c.17-.33.34-.67.49-1s.23-.51.33-.76.28-.7.4-1.06l.27-.83c.1-.34.19-.68.27-1s.15-.64.21-1,.12-.61.16-.93.1-.76.13-1.14l.06-.82c0-.42,0-.84,0-1.27,0-.15,0-.3,0-.46s0-.22,0-.34c0-.39-.07-.79-.11-1.19s-.08-.63-.13-.94-.11-.63-.18-1-.17-.77-.27-1.15c0-.11,0-.23-.08-.34-41-141.23-131.64-271.7-255.12-367.36-121.34-94-263.74-146.86-401-148.81-55.91-.8-110.18,6.93-161.26,23A485,485,0,0,0,729.63,390C630.74,465.51,556.29,579.38,508.32,728.5c-63.2,196.46-96.4,397.38-98.68,597.17a1946.24,1946.24,0,0,0,22,315.14A.43.43,0,0,1,431.68,1640.86Zm18.81-314.72c2.23-195.7,34.77-392.57,96.72-585.13,45.36-141,115.08-248.18,207.2-318.49a444.28,444.28,0,0,1,136.84-71.1c46.93-14.73,96.87-21.83,148.45-21.09,128.41,1.83,262.13,51.64,376.51,140.26,96.14,74.48,109.68,117.1,186.68,261.1,11.32,21.17,25,63.27,1.29,67.13-47.57,7.76-114.89,22.9-201.47,52.3C1257.2,900.54,1106.27,973.4,954.12,1067.7c-79,49-155.57,109-227.47,178.28a1629.58,1629.58,0,0,0-162.38,182.53c-28.62,37.4-52.48,71.77-71.63,101.1-9.74,14.91-32.79,9.15-34.4-8.57A1907.79,1907.79,0,0,1,450.49,1326.14Z"/><path class="cls-1" d="M1067.35,2686.25a20.43,20.43,0,0,0-36.51-18.35c-.26.52-26.65,52.13-77,96.46-28.93,25.46-60.08,43.61-92.58,53.95-40.25,12.81-83.08,13.68-127.28,2.57-44.74-11.23-89.3-37.29-132.46-77.43-35.34-32.87-69.73-75.13-102.21-125.59-55.77-86.64-86.77-168.24-87.2-169.38a20.42,20.42,0,1,0-38.24,14.36c1.3,3.47,32.58,86,90.66,176.46,34.35,53.47,71,98.47,108.85,133.77,48.35,45,99,74.47,150.64,87.44a288,288,0,0,0,70.2,8.91c67.54,0,131.44-25.45,187.68-75.33C1037.76,2744.51,1066.17,2688.6,1067.35,2686.25Z"/><path class="cls-1" d="M1014.33,3204c-49.51-69.47-97.75-104.72-99.78-106.19A20.43,20.43,0,0,0,890.62,3131c.44.32,44.78,32.73,90.44,96.79a530.87,530.87,0,0,1,64.83,121.74,536.15,536.15,0,0,1,33.39,170.05,20.42,20.42,0,0,0,20.4,19.73h.71a20.43,20.43,0,0,0,19.72-21.11A569.59,569.59,0,0,0,1014.33,3204Z"/><path class="cls-1" d="M2420.64,2459.69c-65.91-111.48-149.18-230.05-247.48-352.42-112.68-140.28-219.9-253.82-278.29-313.38a76.66,76.66,0,0,1-9.53-95.57c27.52-42.1,51.18-83.46,70.76-123.72,29-59.72,49.23-117.28,60.05-171.08,18.9-94,2.6-145,1.9-147.18l-38.79,12.82,0-.14c.14.45,13.86,45.75-4,130.62-10.54,50.17-29.85,104.06-57.4,160.2-34.57,70.45-82.27,144.6-141.76,220.38-60,76.45-135.5,148.36-224.34,213.71-71.35,52.49-151.41,100.89-238,143.85-147.77,73.35-264.67,105.76-265.84,106.08a20.43,20.43,0,0,0,10.78,39.41c2.47-.68,33.34-9.22,82.75-27.16a51.19,51.19,0,0,1,68.67,47.38,2118.31,2118.31,0,0,0,16.1,229.77c14.26,115,37.47,226.95,69,332.61,39.46,132.28,92.13,255.11,156.55,365.08s133.94,202.75,206.48,275.54c58.52,58.72,119.23,104.76,180.45,136.83,87.15,45.66,151,50.18,172.8,50.18,4.81,0,7.59-.22,8.13-.26l-3.57-40.7h.11c-.16,0-16.36,1.17-44.26-4-25.81-4.82-67.19-16.23-117.76-43.21C1797,3574.8,1740.1,3531.1,1685,3475.4c-69.28-70-135.88-159.19-197.93-265.1-62.67-107-114-226.58-152.47-355.49-30.87-103.34-53.63-212.87-67.65-325.53-14.3-114.88-16.47-209.82-15.89-267.89a77.65,77.65,0,0,1,44.67-69.5q17.32-8.14,35.39-17.09c88.81-44,171-93.69,244.4-147.62,92-67.64,170.32-142.24,232.73-221.74l.18-.22a25.38,25.38,0,0,1,38-2.32c50.34,50.48,169.09,173.26,295,329.95,97.09,120.86,179.24,237.82,244.16,347.63,80.71,136.52,134.78,262.09,160.68,373.23A20.44,20.44,0,0,0,2566,2869.5a20.67,20.67,0,0,0,4.65-.53,20.43,20.43,0,0,0,15.26-24.53C2559.09,2729.24,2503.47,2599.79,2420.64,2459.69Z"/><path class="cls-1" d="M3533.23,1852a1312.73,1312.73,0,0,0-55.68-222.8,1400.33,1400.33,0,0,0-394.61-589.82A1357,1357,0,0,0,2650.62,780.7c-171.3-63-355.62-91.88-547.86-85.7a116.29,116.29,0,0,1-105-58.36c-35.8-62.55-98.61-158.15-194.47-258.43-113.55-118.78-210.61-225-357.37-296.52-106.34-51.85-256.83-87.11-376-81-94.91,4.86-215.54,19.76-314,61-162.85,68.19-271.45,178.61-281,187-9.16,7.12-78.94,95-178.73,241.31A1333.21,1333.21,0,0,0,148.61,775.48c-47.08,126.34-75.5,261-84.48,400.19-10.76,166.73-1,338.16,29,509.55,24.83,141.89,58.25,253.22,81.91,321.63a171.87,171.87,0,0,1-1.49,116.32c-38.32,102.08-98.44,307-70.48,532.12,20.29,163.39,61.66,297.75,92.78,381.7,23.31,62.87,44.22,107.13,55.38,129.32-30,9.58-62.44,18.09-98.73,25.87-45.78,9.81-85,36.49-110.48,75.14-30.09,45.66-59.59,123-29.26,232.47,10.87,39.19,27.48,68,49.38,85.53,15.89,12.74,34.06,19.24,53.35,19.24,2.85,0,5.73-.15,8.63-.43,5,1,139.13,29.09,304.19,53.22q128.22,18.75,233.5,27.74a7.76,7.76,0,0,1,4.83,2.35l0,0c3.58,3.61,89.54,89.46,251.06,175.07A1426.66,1426.66,0,0,0,1218,3980.12c123.36,32.87,252.06,49.5,382.93,49.5q11.76,0,23.54-.18c286.41-4.35,545.86-64.12,793.2-182.73,207.44-99.48,410.26-241.68,638.25-447.52l.18-.16a1.29,1.29,0,0,0,.17-.16,1458.21,1458.21,0,0,0,258.82-309.11c70.85-113.31,127.32-237.92,167.84-370.37,40.33-131.84,65.1-272.21,73.61-417.21C3565.1,2156.29,3557.25,2004.82,3533.23,1852Zm-17.48,447.82c-8.32,141.77-32.51,278.92-71.9,407.66-39.47,129-94.45,250.38-163.41,360.66q-30.95,49.5-65.74,96.16c-10.88,14.6-33.59,1.64-26.61-15.17l.45-1.1c34.47-83.24,58.61-165.69,73.78-252.07,30.42-173.07,26.56-369-12.5-635.32a1428.47,1428.47,0,0,0-96.61-347.23,1396.29,1396.29,0,0,0-137.29-250.71c-92-133.29-173.78-201.42-177.22-204.26a20.43,20.43,0,0,0-26,31.51c.8.66,80.78,67.3,169.6,196a1355.31,1355.31,0,0,1,133.26,243.36,1387.3,1387.3,0,0,1,93.84,337.3c38.4,261.8,42.31,453.73,12.69,622.32-14.66,83.41-38,163.06-71.29,243.51A1474.06,1474.06,0,0,1,3086.42,3267a611.29,611.29,0,0,1-140.36,174.5c-192,164.59-367.49,282.77-546.07,368.41-241.89,116-495.77,174.45-776.15,178.71-134.82,2-267.47-14-394.24-47.65a1386.28,1386.28,0,0,1-291.28-113.72,1267.22,1267.22,0,0,1-164.66-103.53c-13.58-10.13-6-31.69,10.93-31.16q26.26.84,50.49.84,60,0,107.48-5.11a20.42,20.42,0,1,0-4.38-40.61c-110.6,11.92-284.79,1.31-503.73-30.69-88.22-12.89-167.52-26.9-222.7-37.26a12.65,12.65,0,0,1-7.16-20.85,197.86,197.86,0,0,0,22.81-31.24c24.45-41.2,33.81-88.32,26.37-132.66a20.43,20.43,0,0,0-40.29,6.76c5.76,34.33-2,72.62-21.21,105.06-17.58,29.62-42.16,50.44-65.76,55.67-44.26,9.82-65.62-41.87-74.4-73.56-11.75-42.4-14.34-82.64-7.69-119.6a211.69,211.69,0,0,1,31.69-79.48A134.77,134.77,0,0,1,161,3232.12c76.12-16.31,139.08-36.65,198.13-64,62-28.7,118.08-64.55,169.49-99,33.62-22.54,84.48-49.62,135.83-50.69,30-.63,46.29,8.13,46.45,8.21l-.24-.14,20.64-35.25c-3.48-2-86.93-48.9-225.42,43.94-78.18,52.4-140.83,89.37-215.75,117.6-9.65-18.85-31.56-64-56-130-30.38-81.92-70.74-213-90.55-372.53-26.88-216.48,31.19-414.16,68.19-512.74a212.74,212.74,0,0,0,1.84-144c-23.17-67-55.91-176.09-80.27-315.32-29.43-168.2-39-336.38-28.45-499.88,8.7-134.83,36.15-265.19,81.59-387.48A1292.68,1292.68,0,0,1,328.93,514.45c99.17-145.83,195-220.3,195.94-221l.58-.45.55-.49c1.07-.94,108.6-95.55,269.45-162.9C889.55,90.17,983,67.84,1073.18,63.22c112.19-5.75,219.81,16.07,319.87,64.85a1334.14,1334.14,0,0,1,380.68,278.37c93,97.3,153.87,189.92,188.55,250.49a157,157,0,0,0,141.79,78.9c187-6,366.1,22,532.44,83.21a1316.4,1316.4,0,0,1,419.36,250.89,1356.69,1356.69,0,0,1,290.88,364.61,1343.12,1343.12,0,0,1,92.17,207.93,1269.79,1269.79,0,0,1,53.95,215.83C3516.44,2008.28,3524.14,2156.81,3515.75,2299.78Z"/><path class="cls-1" d="M1099.71,1553.11a20.35,20.35,0,0,0,12.15-4,485.39,485.39,0,0,1,76.56-44.17c72.78-33.66,122.46-33.87,151.31-28.11,37.57,7.5,66.57,29.11,88.66,66.07a20.42,20.42,0,0,0,35.06-21c-28-46.77-66.89-75.43-115.73-85.17-119.15-23.78-254.49,75.3-260.19,79.53a20.42,20.42,0,0,0,12.18,36.83Z"/><path class="cls-1" d="M1030.57,1807.76a20.43,20.43,0,0,0,9.9,27.14L1183,1901.23c23.31,10.84,53.47,18.43,82.75,20.82,5.93.48,12.49.8,19.42.8,21.17,0,45.87-3,66.78-13.73,63.73-32.64,141.83-89,152-172a20.43,20.43,0,0,0-40.55-5c-3.53,28.74-19.09,56.63-46.24,82.92-21.5,20.8-49.71,40.23-83.87,57.72-32.65,16.73-95.17,9.07-133.09-8.57l-142.52-66.33A20.43,20.43,0,0,0,1030.57,1807.76Z"/></g></g></svg>