<svg xmlns="http://www.w3.org/2000/svg" viewBox="0 0 2558.4 3228.91"><defs><style>.cls-1{fill:#fff;}</style></defs><g id="Layer_2" data-name="Layer 2"><g id="Outline_copy" data-name="Outline copy"><path class="cls-1" d="M1686.76,1679.58a13.36,13.36,0,0,1-15.32,11.06c-130.61-21.09-223.14,71.55-243.83,169.4q-1.9,9-3.86,18.63c-22.82,111.24-61,297.43-284.58,341.6-69.07,13.64-122.89,15-170.19,15-5.88,0-11.65,0-17.34,0s-11.07,0-16.52,0a13.36,13.36,0,1,1,0-26.71q8.22,0,16.61,0c50.29.14,107.23.38,182.27-14.44,206.14-40.73,240.71-209.25,263.58-320.76,1.33-6.48,2.62-12.76,3.89-18.8,23.26-109.92,127.25-213.93,274.23-190.24A13.36,13.36,0,0,1,1686.76,1679.58Zm870.07,113a13.34,13.34,0,0,1-15.32,7c-3-.77-300.26-77.57-473.15-93.83-143.86-13.53-246.69-2.28-247.71-2.16a14,14,0,0,1-2.42,0c-12.5,12.36-53.35,54.67-119.72,141.69-26.23,34.39-47.52,72.85-70,113.58-60.45,109.23-129,233-321.83,332.51-117.69,60.71-262.06,75.3-373.6,75.3a1289.63,1289.63,0,0,1-156.67-9.45c19.74,66.22,77.81,285.31,67.1,538.88-8.39,198.55-57.17,282-96.62,317a61.81,61.81,0,0,1-41.3,15.76c-1.36,0-2.73,0-4.1-.13a61.09,61.09,0,0,1-42.5-21.06c-40.29-46.4-68.54-149.8-82.43-300.58a985.9,985.9,0,0,1-62.68,113.34C450.08,3120.3,403,3167.66,367.08,3167.66a38.73,38.73,0,0,1-10.5-1.43c-34.83-9.79-39.68-64.07-40.15-87-.64-31.56,5-69.75,14.65-129.41-38.42,61.49-97.74,143.21-141.65,143.22-.85,0-1.69,0-2.53-.1-15.21-1.12-27.84-8.12-36.55-20.24-23.76-33.09-20.14-103.28,11.75-227.6,8-31.13,19.67-65.94,33.08-101.13-35.52,49.37-78.51,108.11-112.4,151.24-13,16.57-31.56,37.07-50.33,37.07a24.9,24.9,0,0,1-9.4-1.83c-26.19-10.55-24-61.81-21.86-83.36,0-.25.06-.5.1-.75,28.47-181,232.47-394,265.14-427.15.34-55.93,63.4-119.1,66.19-121.87,175.84-176,282.52-307.59,335.7-413.93,23.15-46.31,53.44-78.56,82.6-100.88-45-33.41-158.15-125.45-175.83-218.19a11.73,11.73,0,0,1-.21-1.67c-.14-2.23-1-22.12,13.34-32.71a29,29,0,0,1,5.22-3c-15.21-19.31-36.84-47.79-56.92-77.89-52.5-78.69-68-127.06-48.84-152.22,14.25-18.7,30.48-22.25,41.56-22a52.46,52.46,0,0,1,12.78,2.06c-33.79-58.43-79.8-146.59-105.07-231.75-5.73-19.3-4.3-50.54,9.62-70.43C449.9,970,454.19,966.3,458,963l1.62-1.41a74.48,74.48,0,0,1,60.71-17.37,75.47,75.47,0,0,1,7.82,1.69C419,711.07,433.83,667.56,457.18,646c15-13.82,29.93-14.29,39.84-12.25,7.76,1.6,15.18,5.32,22.15,10.37-25.79-81-39.25-144-39.44-144.89-27.38-125.91-23.25-198.46,12.62-221.72C509,266.72,528.1,269.38,543,274.7,507.74,125.67,519.55,24.36,577.18,4l1.05-.38c26.21-9.39,57.26-8.94,122.17,106.23C730.45,163.19,760,251,783.58,332.36c8.81-28.6,27.29-46.07,48-51.82,15.15-4.2,33.11-2.45,49.66,7C863.39,205,858.36,81.45,900.39,29.79,914.46,12.49,933.33,3.9,955,5c67.38,3.41,111.61,151,123.56,196.17,38.22,144.39,182.87,924.35,184.32,932.21.61,3.54,38.7,225.68,69.25,399.79,43-37.58,150.46-126.12,227.34-142.81,128.83-28,245-3.53,365.61,76.87,80.47,53.65,108.24,80.93,116.24,89.87a13.07,13.07,0,0,1,3.61.3c8.49,2,208.87,49.91,295.63,88.57,95.11,42.37,159,79.22,213.23,121.77C2558.71,1771.67,2559.64,1786.89,2556.83,1792.56ZM1337.51,1564.11c4,22.62,7.78,44.07,11.28,63.69,35.76-32.1,183.43-154.79,350.9-154.79,2.59,0,5.14,0,7.73.08,6.21.11,151,3.91,226.46,109.68l73.71-21.06c-15.28-13.55-44.5-37-97.38-72.24-114.18-76.12-223.85-99.31-345.12-73C1486.4,1433.57,1365.39,1539.06,1337.51,1564.11Zm406.71-50.27a49.44,49.44,0,1,0,49.44,49.44A49.5,49.5,0,0,0,1744.22,1513.84Zm59.8,166.34c45.63-46.89,85.27-74.09,105-86.22-27.71-36.47-65.68-58.82-101.25-72.53a76.13,76.13,0,1,1-105.56-21.61c-179-1.3-341.35,153.1-343,154.67a13.33,13.33,0,0,1-5.12,3c6.2,34.45,11,60.44,13.57,72.9a13.35,13.35,0,1,1-26.16,5.39c-4.65-22.59-103.39-588.47-104.93-597.4-9.66-46.6-30.46-99.56-46.06-104.22-.94-.29-3.84-1.13-9.7,4.73-1.67,1.67-15.68,19.8,8.52,138.5,7,34.12,15.19,67.26,21.32,90.65,3.2,10.65,6.2,21.94,9.16,33.6a13.35,13.35,0,0,1-25.77,7c-.08-.26-3.5-12.13-8.42-30.79-14.94-49.93-28-66.12-47.35-62.23-.82.64-22.19,19.43,39.77,220.29,12.27,39.77,25.47,79.08,37.14,112.57,10.87,27.88,21.47,57.51,31.83,87.52l2.45,7.08a13.35,13.35,0,0,1-25.09,9.14c-6.94-18.12-21.58-57-38.2-104.83-25.25-63.3-57.12-128.94-86.18-140.79-4.93-2-9-2-13.31.18-2.1,1-5.1,3.15-6.94,9.24-10.6,35,32.41,130.16,62,181.9a13.35,13.35,0,0,1-23,13.6c-17.3-28.24-34.67-45.18-46.49-45.32h-.12c-5.61,0-11.34,4.46-17,13.26-11.85,18.39,12.24,72.39,33.12,104.87a13.36,13.36,0,0,1-13.62,20.37c-13.61-2.43-52.63-4.4-68.91,15.45-15.56,19-6.87,53.52,3.15,79.18a13.35,13.35,0,0,1-7.58,17.3,13.16,13.16,0,0,1-4.85.92,13.36,13.36,0,0,1-12.45-8.5c-18.38-47-18-82.69,1.15-105.93,12-14.59,29.36-21.48,45.91-24.5L891.4,1442.34a13.36,13.36,0,0,1,23-13.59l116.69,197.4c-6.67-22.33-8.72-45.08,1.63-61.13,13.54-21,28.85-25.5,39.46-25.5h.43a41.17,41.17,0,0,1,10.66,1.57c-19.93-45-38.85-100.48-29.08-132.77,3.52-11.65,10.63-20.43,20.56-25.39,11.13-5.57,23.35-5.93,35.34-1a61.14,61.14,0,0,1,12.13,6.78L935.65,919.36a13.36,13.36,0,0,1,24.82-9.87l153.87,387.07c-7.62-42.43-9.16-76.39-.18-92.68,5.46-9.89,13.29-13.3,18.89-14.42,12.58-2.51,23.17-1.11,32.24,3.44q-1.07-5.06-2.11-10.14C1138.57,1062,1149.59,1032.38,1162,1020c14.17-14.18,27.54-14,36.24-11.43,5.72,1.71,11,5.2,16,9.89C1171.85,792.8,1081.53,317,1052.68,208c-22.83-86.29-64.2-174.56-99.07-176.32-13.2-.65-23.78,4.22-32.51,15-37.34,45.89-29.54,176.46-9.56,253.06,2.17,8.32,5.3,20.93,9.33,37.38.37,1,.79,1.82,1.14,2.79a13.26,13.26,0,0,1,.8,5.12l5.87,24.06c29.57,121.23,91.11,373.5,151.06,565.78a13.36,13.36,0,0,1-25.5,7.95C994,749.71,932.37,496.89,902.73,375.39c-2.74-11.21-5.19-21.28-7.4-30.28-13.83-33.56-38.68-43.83-56.62-38.83-23.31,6.47-41.81,39-30.6,97,36.1,186.81,76.24,326.2,76.64,327.59a13.36,13.36,0,0,1-25.38,8.28c-6.82-18.73-30.86-69.32-59.72-78.41-9.47-3-19-1-29,6-37.42,26.19,9.4,183,54.61,286,0,0,0,0,0,.05s.09.28.14.42a13.14,13.14,0,0,1,.59,1.84c0,.07,0,.14.07.22,6.61,18.09,108.62,247.32,191.6,418.15a13.36,13.36,0,0,1-24,11.67c-49.55-102-102-216.79-128.89-276.13-40.07-88.47-56.38-124.59-62.17-140.93-13.64-5.74-41-13.77-56.85-3.49-11.13,7.23-16.24,23.64-15.2,48.76,3.51,84.3,93.15,282.42,94.06,284.41a13.36,13.36,0,0,1-22,14.6c-25.76-27.84-47.66-13.34-48.58-12.7-27.7,20.24,29.17,145.87,97.93,250.54l0,0,70.64,107a13.36,13.36,0,1,1-22.3,14.71l-66.64-101c-9.62.61-24.69,3.49-32.64,12.67-6,6.95-7.67,17.46-4.92,31.23a13.36,13.36,0,0,1-10.47,15.72,14.06,14.06,0,0,1-2.64.26,13.36,13.36,0,0,1-13.08-10.74c-2.19-10.94-2.39-20.86-.67-29.74a11.46,11.46,0,0,1-1-1.05L676.16,1471.6a13.35,13.35,0,1,1,21-16.45l85.39,109.21c10.11-10.55,23.64-15.68,35.24-18.09-13.63-22-36.71-60.64-57.05-102-44.43-90.41-51.7-144.84-22.2-166.39,8.93-6.13,25.67-11.92,44.84-7.57-17.61-41.51-45-109.61-62.67-170.4a12,12,0,0,1-1.06-1.63l-105.32-228A13.36,13.36,0,0,1,638.62,859l65.26,141.3c1.31-27.67,10.44-47.25,27.35-58.19,17.86-11.56,40.33-10.26,58.06-6.22-10.21-25.52-25.4-65.82-37.87-108.58-29.28-100.45-28-160.13,3.87-182.44,16.85-11.8,35-15.12,52.43-9.61,10.54,3.32,15.66,10.08,24.17,17.88-7.17-33.31-13.22-72-23.34-117.17a14.09,14.09,0,0,1-.95-2.74C807,530.32,741.76,237.65,677.14,123c-59.28-105.16-80-97.76-89.9-94.2l-1.17.41c-40.51,14.3-56.91,118.11,2.82,312.25C648.06,533.77,686.36,644.88,686.74,646a13.35,13.35,0,1,1-25.24,8.72c-.39-1.1-38.82-112.59-98.14-305.39q-6.39-20.76-11.72-40.55c-5.14-3.41-29.72-18.62-44.8-8.79-11.35,7.4-34.17,41.09-1,193.68.27,1.26,23.51,109.89,67.52,224.72.11.27.23.52.32.72s.16.52.25.77c4.14,10.77,8.45,21.59,13,32.37a13.36,13.36,0,0,1-24.65,10.29c-4.68-11.19-9.15-22.42-13.44-33.59-11.28-24.85-36.29-64.71-57.19-69-3.85-.81-9.19-.86-16.32,5.72-24.69,22.78,9.89,131.52,102.78,323.2.09.17.12.35.2.52C602,1033.5,662.6,1163,677.5,1196.82a13.36,13.36,0,0,1-24.45,10.76c-15.57-35.39-85.77-185.16-103-214a48.19,48.19,0,0,0-33.89-22.9,47.71,47.71,0,0,0-39,11.14l-1.75,1.51c-2.84,2.45-5.53,4.76-6.94,6.77-7.48,10.69-10.23,32.9-5.9,47.52,41.05,138.31,142.17,290.55,143.19,292.07.23.35.38.73.58,1.1A13.21,13.21,0,0,1,607,1332a10.22,10.22,0,0,1,.37,1.19,13.18,13.18,0,0,1,.39,1.32c.08.4.08.8.13,1.2s.12.92.12,1.37-.07.77-.1,1.15a13.49,13.49,0,0,1-.15,1.41c-.07.36-.2.7-.3,1.05a13.29,13.29,0,0,1-.42,1.4c-.14.34-.34.64-.5,1a13.81,13.81,0,0,1-.69,1.32c-.21.31-.47.58-.7.87a11.68,11.68,0,0,1-1,1.18,11.44,11.44,0,0,1-.91.76,12.54,12.54,0,0,1-1.1.93l-.06,0-.05,0-.18.09a13.39,13.39,0,0,1-3,1.42c-.27.09-.53.18-.81.25a13.09,13.09,0,0,1-3.38.49h0l-.16,0a13.23,13.23,0,0,1-2.73-.33c-.3-.07-.58-.17-.87-.26a12.26,12.26,0,0,1-1.94-.73c-.31-.14-.6-.29-.89-.45a13.43,13.43,0,0,1-1.78-1.23c-.22-.18-.46-.34-.68-.54a13.22,13.22,0,0,1-2-2.27c-7.54-11-33.86-42.5-55.08-43-4.55-.06-11.57,1-19.6,11.49-2.77,3.62-13.35,26.51,49.82,121.2,35,52.48,74.83,99.89,75.22,100.36a13,13,0,0,1,1.61,2.44l86.65,90.33a13.36,13.36,0,0,1-19.28,18.49l-90-93.85c-5.32-1.6-8.06-1.15-8.81-.59-1.71,1.26-2.59,6.16-2.6,8.9C619,1648.09,739,1740.84,774.27,1766.47A265.79,265.79,0,0,1,834,1739a253,253,0,0,1-17.71-27.2,13.36,13.36,0,1,1,23.4-12.88c23.28,42.28,86.11,106.63,137.19,140.52a13.35,13.35,0,0,1-14.76,22.26c-37.12-24.62-79-63.26-110.07-100-6.56,1.6-55.69,24-55.67,24.33a841.7,841.7,0,0,1-1.64,102.29,13.35,13.35,0,0,1-13.3,12.34c-.34,0-.69,0-1,0a13.36,13.36,0,0,1-12.3-14.34,821.06,821.06,0,0,0,2-84.3,259.47,259.47,0,0,0-77.25,92.12c0,.26,0,.5,0,.76-24.5,181-94.23,315.7-123.07,365.2a13.36,13.36,0,0,1-23.08-13.45c24.14-41.43,77.71-144.27,107.37-284.55-61.23,96.12-159.31,210.77-302.6,354.22-17.37,17.26-61.6,70.08-58.19,107.4,1.07,11.69,6.87,21,17.74,28.42a14.36,14.36,0,0,0,12.11,2.17c19.56-4.41,45-37.25,56.46-56.91a13.35,13.35,0,0,1,24.8,8.28,13.05,13.05,0,0,1,.45,3.33c-.09,20.05,6,75.08,34.78,88.59,21.85,10.27,56.58-3.76,100.46-40.54,15-12.61,34.83-36.46,56.57-69.53a13.23,13.23,0,0,1,3.05-4.73c47-72.79,102.45-187.59,138.85-324.81a13.35,13.35,0,0,1,25.81,6.84C727.46,2203.9,672.27,2319.3,624,2394.56c11.86,33.89,29.2,46.56,60.37,44.7a13.36,13.36,0,0,1,1.57,26.67c-2.39.14-4.73.21-7,.21-40.24,0-60.94-21.62-72.79-45.17-18.41,25.86-35.24,45.09-48.87,56.51q-45.12,37.83-80.62,47.05c-9.85,16.12-46.53,80.41-76.71,189a13.35,13.35,0,1,1-25.73-7.16c25.09-90.26,54.17-150.32,70.35-179.72a60.56,60.56,0,0,1-16.31-4.9c-30.69-14.45-42.56-52.19-47.17-80.11-13.58,16.5-32.13,34.22-52,38.71a44.35,44.35,0,0,1-9.81,1.12,40.81,40.81,0,0,1-23.28-7.29,68,68,0,0,1-22.12-24c-52.46,55.46-221.36,244.23-246.09,400-2.33,24,.18,50.26,5.2,55.36,2-.44,10.64-3.61,28.84-26.78,69.6-88.58,178.29-244,179.38-245.58A13,13,0,0,1,243,2631c7.82-16.9,15.53-33,22.84-47.58a13.36,13.36,0,0,1,23.9,11.94C254,2667.06,208.42,2772.05,188,2851.77c-28.53,111.26-33.89,180.36-15.92,205.38,4.11,5.72,9.45,8.64,16.82,9.19.37,0,.76,0,1.14,0,34.41,0,109.66-110.07,152.85-189.56,1.44-9.08,2.92-18.51,4.46-28.39a13.35,13.35,0,1,1,26.39,4.09c-4.87,31.41-9.29,58.64-13.16,82.5-11.28,69.41-18.08,111.3-17.42,143.7.56,27.12,7.26,58,20.68,61.8,8.26,2.32,42-.48,127.51-134.42,33.94-53.14,61.12-105.79,80.89-156.57-.14-20.66-.58-160.52,11.26-284.93a13.36,13.36,0,0,1,26.59,2.54c-12.32,129.45-11.2,276.16-11.13,284.41,14.39,220.15,51.54,305.68,80.18,338.67a34.62,34.62,0,0,0,24.06,11.91,35.3,35.3,0,0,0,25.93-9c29.13-25.88,79.25-99,87.67-298.2,12.59-297.76-71.23-547.09-72.08-549.57,0-.1,0-.19-.07-.29a15.06,15.06,0,0,1-.35-1.51c-.07-.36-.16-.71-.2-1.07s0-.86,0-1.3,0-.89,0-1.33a1.61,1.61,0,0,1,0-.22c.36-3.45,9.65-85.7,74.88-185.72,36.42-55.84,100.9-99.13,163.25-141,44.69-30,87.22-58.6,118.6-90.49-2.28-.67-4.56-1.35-6.84-2.1a13.36,13.36,0,1,1,8.37-25.37,184.62,184.62,0,0,0,119-1.21l-63.54-190.73a13.36,13.36,0,0,1,25.35-8.44L1246,1883.22c23.38-12.13,42.68-28.5,55.57-46.48a13.36,13.36,0,1,1,21.71,15.56c-31.59,44.07-92.68,78.94-162.45,78.94a210.84,210.84,0,0,1-29.72-2.15c-34.44,39.15-85,73.15-134,106.06-60.14,40.37-122.32,82.12-155.77,133.41-47,72-63.39,135.11-68.56,161.19,62.61,8,332.74,35.33,521.65-62.1,185.67-95.77,252.09-215.81,310.7-321.71,23-41.61,44.77-80.91,72.18-116.85C1756.79,1724.83,1799.69,1684.2,1804,1680.18ZM2484,1757.75a894.59,894.59,0,0,0-154.33-87.36c-84.48-37.65-293.66-87.94-294.85-88.67l-101.41,29c-6.09,3.31-40.75,23-85.22,63.87,41.26-2.56,121.31-5,222.72,4.58C2196.33,1690.94,2385.68,1734,2484,1757.75Z"/></g></g></svg>