<svg xmlns="http://www.w3.org/2000/svg" viewBox="0 0 3129.54 3584.37"><defs><style>.cls-1{fill:#fff;}</style></defs><g id="Layer_2" data-name="Layer 2"><g id="Outline_Stroke_copy_3" data-name="Outline_Stroke copy 3"><path class="cls-1" d="M664,2383.37c.65-2.93,1.17-5.38,1.52-7.11.14-.66.29-1.45.41-2.3,82-242.66,187.62-400.54,261.79-490.28,80.19-97,141.88-137.45,142.83-138.07l.1-.07a6.15,6.15,0,0,0,.52-.37l.26-.2,0,0c58.37-47.69,108.46-79.62,133.12-94.41a42.15,42.15,0,0,0,18.67-48.77c-9.13-29.38-30.74-80.29-81.81-156-23.82-35.29-59.41-64.11-105.78-85.65l-.26-.11-.22-.1c-56.61-22.74-125.2-34-161.05-38.61a35.26,35.26,0,0,0-39.83,34.75c-.19,36.35-6,115.54-42.44,237.47-27.39,91.56-77.28,167-114.3,214.22-40.27,51.32-74.49,81.26-74.83,81.55h0c-.2.18-.39.36-.57.55l-.1.09C536,1959,452.52,2034.1,354,2113.1a10,10,0,0,0-3,11.68c60.46,143.61,107.92,339.69,142.58,482.86,22.3,92.1,38.41,158.64,50.62,182.39,6.87,13.34,23,38.69,40.19,65.52,15.49,24.24,31.51,49.31,43.21,69.38a10.22,10.22,0,0,0,13,4.36,10,10,0,0,0,4.72-13.67C573.94,2777.19,556.21,2616,573,2508.2c1.95-12.56,19-14.89,24.26-3.3,16.19,35.8,31.55,86,45.92,150.29,19.46,87.06,33.79,184.73,44.24,256,6.67,45.45,11.93,81.35,16.4,100.7,5.61,24.31,18.58,49.7,38.56,75.49a10,10,0,0,0,17.83-7.31c-28-234.55-64.89-526.25-81.79-583.92-7.94-27.07-11.4-51.34-10.31-72.13a10.38,10.38,0,0,0-3.06-8.13,10,10,0,0,0-7.72-2.73c.66-2.84,1.33-5.8,2-8.76C661.33,2395.56,662.93,2388.48,664,2383.37ZM1124.91,1457c49.72,73.64,70.56,122.6,79.29,150.7a22.22,22.22,0,0,1-9.86,25.68c-23,13.79-67.66,42.19-120.55,84.07-12.84-178.34-19.59-274.7-20.08-286.52-.54-12.78-5-29.67-8.51-43.23,0-.15-.07-.3-.11-.45C1079.46,1406,1106.26,1429.37,1124.91,1457ZM693,1820.53c38.2-48.63,89.69-126.48,118-221.23,37.19-124.33,43.08-205.68,43.28-243.1a15.27,15.27,0,0,1,17.25-15c33.66,4.37,96.86,14.65,150.25,35,.73,4.06,2.11,9.32,4,16.57,3.3,12.64,7.42,28.37,7.86,39,.49,11.72,6.6,99,18.64,266.53a63.2,63.2,0,0,1-22.89,53.35c-26.34,21.67-67.8,59.73-116.38,118.4-48.12,58.1-93.24,124.48-134.09,197.3-48.64,86.67-91.34,182.77-127,285.85a45.45,45.45,0,0,1-5.68-16.29c-1.51-9-4.54-63.81-8.37-133.16-4.51-81.52-10.65-192.73-18.25-302.68C629.77,1891.79,659,1863.85,693,1820.53Zm-33.82,681.28c12.31,42,39.17,232.25,76,537.56a141.27,141.27,0,0,1-11.88-31.93c-4.29-18.57-9.5-54.11-16.1-99.11-10.5-71.62-24.89-169.71-44.52-257.51-23.63-105.71-49.47-173.2-79-206.3a10,10,0,0,0-7.47-3.35,10.51,10.51,0,0,0-2,.2,10,10,0,0,0-7.47,6.6c-18.64,55.09-24.32,133.89-15.61,216.19a777.1,777.1,0,0,0,31.57,151.49c-9.19-14.6-16.77-27.05-20.74-34.77-11.13-21.63-27.83-90.61-49-178-34.26-141.54-81-334.55-140.68-478.94,89.13-71.73,165.89-140.26,228.57-204,7,104,12.77,207.76,17,284.9,4.55,82.28,7,125.66,8.61,135.34,3,18.08,11,29.07,18.68,35.66-2.46,11.38-8.43,37.45-12.39,54.55a10,10,0,0,0,14.78,10.89l.53-.3C649.08,2459.52,652.78,2479.9,659.21,2501.81ZM1728.4,1572.68l0-.13a12.93,12.93,0,0,0-25.52-1.35c-18.58,88.65-40.57,200-63.71,321.27a31.5,31.5,0,0,1-28.81,25.5c-44.66,3-134.75,5.94-225.81-10.13a10,10,0,1,0-3.48,19.7c56.4,10,112.41,12.79,158,12.79,22.7,0,42.81-.7,59.08-1.59a25.58,25.58,0,0,1,26.53,30.28c-58.85,312.18-121.86,669.07-153.3,868a10,10,0,0,0,18.48,6.67L1621,2622.73l.12-.2a191.35,191.35,0,0,0,19.44-49.69h0c2.24-9.45,4.3-20,6.91-33.43,4.09-21,9.7-49.86,20-95.27a10.66,10.66,0,0,0,.25-1.86C1672.4,2313.36,1681.49,2196,1683,2188c.87-3.7,2.41-5.92,4.54-9,3.7-5.33,8.3-12,9.06-25.53.14-2.53,1-15.06,2.27-34,8.43-124.27,34.08-502.45,29.58-546.63Zm-49.52,545.39c-1.34,19.71-2.14,31.61-2.29,34.26-.44,7.92-2.57,11-5.52,15.25-2.62,3.78-5.89,8.49-7.61,16-2.08,9-11.22,134.5-15.65,257.07-10.26,45.19-15.85,73.94-19.94,95-2.67,13.69-4.59,23.58-6.74,32.63a171.73,171.73,0,0,1-17.35,44.4L1499.4,2788.37c47.13-289.56,142.44-816.89,208-1139.89C1703.77,1734.42,1694.25,1891.49,1678.88,2118.07ZM1311.2,3004c-99.87-18.42-206.48-47.1-262.82-63.07a36.92,36.92,0,0,1-26.09-43.06c19.5-93.37,74.47-326.11,113.88-489.55,0-.09,0-.17,0-.26l.09-.39c7.39-42.91,15.28-89.1,23.64-138,25.9-151.5,55.26-323.21,85.23-489.07a12.11,12.11,0,0,0-22.56-7.9l-67.36,124.51c-.07.14-.15.28-.21.42-20.45,42.57-46.25,85.8-76.68,128.49a8.35,8.35,0,0,0-.47.74h0c-.18.31-18.47,31.08-65.86,84.44-43.75,49.26-121.95,128.39-246,225.59a10,10,0,1,0,12.33,15.75c125.72-98.49,205-178.8,249.32-228.83,23.73-26.76,40.22-47.83,51-62.52l7.56,103.94c6,83.26,10.42,143.42,10.82,149.34.7,10.56-3.85,15.5-8.24,20.28a42.36,42.36,0,0,0-4.55,5.58c-24.08,3.8-117.12,18.51-156.91,25.14a10,10,0,0,0,1.63,19.86,10.41,10.41,0,0,0,1.66-.13c39.65-6.61,132.38-21.27,156.62-25.1a18.56,18.56,0,0,0,8.23,2.62c3.31.36,7.42.79,13.94,9,.68,1.81,2.68,8.66,6.87,33.75-4,16.73-33,137.23-61.35,258.11-61.89,264.18-60.4,272.41-59.59,276.83a.5.5,0,0,0,0,.12,2.25,2.25,0,0,0,0,.22c1.71,8.87,7,15.48,11.74,21.31,6.63,8.23,11.87,14.73,9.76,27.38-4.56,27.35-74.85,398.72-75.56,402.47a10,10,0,1,0,19.65,3.72c2.9-15.31,71-375.34,75.64-402.9a55.71,55.71,0,0,0,.68-6.16,22.19,22.19,0,0,1,28.07-20.26c60,16.58,153.87,40.95,242.54,57.28a10.39,10.39,0,0,0,1.83.17,10,10,0,0,0,9.9-8.73A10.2,10.2,0,0,0,1311.2,3004Zm-204.61-659.1c5.28-6.24,11.42-15.84,10.36-31.66-.4-6-4.55-63.06-10.83-149.46l-9.37-129c30.13-42.59,55.76-85.72,76.22-128.27l43.81-81c-26.94,150.63-53.15,303.94-76.54,440.77q-8.21,48-15.81,92.37C1117.84,2350.54,1111.64,2346.73,1106.59,2344.85ZM3129.19,933.49a16.41,16.41,0,0,0-13.4-12.88c-77.13-13.07-166.09-14.11-272-3.18-89.13,9.21-171.48,25-237.66,37.59-28.84,5.52-54.48,10.42-75,13.62,127.36-79.9,234.88-173.64,312.61-272.82a16.48,16.48,0,0,0-15.67-26.43c-56.36,9.55-117.6,32.28-182,67.55-51.85,28.39-106,65-161.07,108.89-92.8,74-158.44,144.67-172.46,160.11-32.88,9.15-99.79,21.42-140.66,28.57l123.85-110c45.66-20.12,87.53-53.67,124.47-99.72,30.35-37.84,57.66-84.46,81.17-138.55,41.26-94.95,59.89-187.44,66-222.79a16.48,16.48,0,0,0-24.59-17c-41.78,24.65-82.24,60.14-120.23,105.47-30.21,36-59,78.4-85.46,125.88A1062.54,1062.54,0,0,0,2288.46,777c-2.32-116.52-22-279.85-28.85-333.34a16.47,16.47,0,0,0-30.82-5.77c-36.78,67.93-63.16,135-78.42,199.4-12.53,52.87-17.67,104.3-15.28,152.85,4,81.83,28.24,132.77,37.2,149-21.09,32.42-108.28,117.61-172.85,175.5,4.76-75.82,9.91-157.37,14.94-236.87,13.18-208.64,25.64-405.71,27.46-443.63a16.47,16.47,0,0,0-16.35-17.26l-265.82-1.79-266.29.57a16.39,16.39,0,0,0-16.24,13.88c-3.84,24.13-24.07,150.67-45.94,272.91C1418.81,771.73,1408,828,1399,869.65c-15,69.75-21.29,82-22.86,84.09-16.66,22.21-6.27,42.07.61,55.21,6.74,12.87,6.1,13.26,1.93,15.8-18.34,11.18-28.48,23.5-30.14,36.64-1.12,8.86,1.79,17.83,8.23,25.58-15.72,14.77-24.55,31.48-26.25,49.73-1.57,16.86,3.46,31.5,8,40.81,5.48,11.36,7.66,19.29,6.46,23.57-17.47,62.45-37.94,152.42-62.54,274.9-50.24-44-135.45-117.48-183.85-153.6,35.16-24.4,134-108.69,190-313.59,63-230.21,22.06-444.19,8-504.29A16.46,16.46,0,0,0,1267,499c-39.07,57.13-164.07,244.21-238.57,405.24-3.13-159.44-6-325-7.59-414.68l39.84-50c.23-.29.45-.58.67-.9,55.38-79.82,88.43-148,104-214.56,13.8-58.92,11.71-108.79,9.68-157-.63-15.09-1.29-30.69-1.44-46.36a16.49,16.49,0,0,0-1.2-6,10,10,0,0,0-17.13-10.22,16.72,16.72,0,0,0-6,1.92C953.69,112.54,820.92,247.12,743.41,417.72L493.46,417h-.08a27.72,27.72,0,0,0-27.5,31.21c5.9,46.45,13.56,140.62,22.16,272.65-39.66-33.6-100.62-79.24-175.6-116.05-88.81-43.61-179-66.32-268-67.5A16.46,16.46,0,0,0,31,563.63c16.53,22.09,63.37,79.91,141.25,139.73,96.22,73.9,205.26,125.37,324.13,153C499,901.05,501.55,946.63,504,992c-94.88-51-199.3-83.57-310.46-96.66-7.55-1.28-117-19.36-176.58-5.49a16.57,16.57,0,0,0-5.52,2.41,10,10,0,0,0-6.51,18.47,16.77,16.77,0,0,0,2.46,4.91c31.35,42.64,202.93,259.71,509.34,354.28.37,10.64.69,20.66,1,29.81.84,28.87-3.59,64.54-5.72,81.68-.79,6.37-1.15,9.26-1.21,11-1,26,12,40.73,23.05,48.53a23.31,23.31,0,0,1,9.83,15.95c2.36,18.25,10.08,43.19,10.73,45.27,2.93,10,5.89,23.11,8.82,39.06-122.22,109.89-209.85,218.33-267.86,331.49-41.82,81.59-74.39,162.15-96.8,239.44-18.38,63.39-25.09,108.37-27.45,129.54a16.53,16.53,0,0,0,1.12,8.15c-.74,1.34-1.14,2.07-1.19,2.15a10,10,0,0,0,17.53,9.64c.07-.14.4-.73,1-1.73a16.61,16.61,0,0,0,7.46-2.93c14.83-10.5,44.94-32.11,83.74-61.44a1313.41,1313.41,0,0,0,22.07,171.18,1006.93,1006.93,0,0,0,34.6,129.55c-76.59-95-239-293.88-295-341.51a16.48,16.48,0,0,0-27.1,13.9c2.65,32,14.43,117.22,66.43,217.83A708.43,708.43,0,0,0,193.24,2544c54,58,119.37,109.55,194.17,153.27,2.89,1.87,54.69,35.92,104,102.07-40.24-40.14-89.69-81.84-150.19-118.14C186.83,2588.6,92.39,2560.16,59,2552.24a16.46,16.46,0,0,0-18.21,24c15.12,27.39,57,99.36,118.9,176.06,77.76,96.31,158.8,165.86,240.88,206.7l51,25.36c166.37,82.72,172.86,85.95,229.71,124.16,21,14.15,43.75,29.21,67.5,44.8,7.06,60.14,11.95,103,13.15,113.47-4.14,8-13.58,32.09.69,63.48,10.28,22.61,25.86,143.07,36.09,239.36a16.45,16.45,0,0,0,16.48,14.73l107.81-.66c12.64,1.49,328.56-1.41,425.19-2.34a16.44,16.44,0,0,0,16.18-14.59c3.41-30.17,21.08-145.24,41-256.88,35.74-200.2,49.22-225.2,51.68-228.23,12.81-12.17,18.47-22,19.89-35.26,31.07,21,73.22,76.53,125.86,145.87l11.81,15.54c-9,170.33-17.1,325.41-18.87,359.24a16.47,16.47,0,0,0,16.45,17.34H1898a16.46,16.46,0,0,0,16.48-16.86c-.28-11.65-.9-38.08-1.74-74.7,124.64,57.36,251.65,65.6,276.12,66.68a16.3,16.3,0,0,0,12-4.49,16.57,16.57,0,0,0,5.14-11.82c.23-24.9-23.44-97.1-184.6-300.92A732.16,732.16,0,0,0,1905,3124.94c-2.59-138.42-4.07-242.67-4.39-310,34.83-1.07,70.78-3.1,109.74-6.18,144.69-11.46,325.3-72.71,536.82-182.05,170.37-88.07,313.25-183.46,366.77-220.38a16.48,16.48,0,0,0-12.86-29.66c-57.83,12.58-184.18,37.69-380.64,64.55-143.56,19.63-272.14,45.18-382.18,75.93-82.32,23-156,49.22-224.71,79.95l2.67-88.19c36.06-29.42,75.94-60,118.61-90.85,94.9-68.68,190-152.45,282.5-249,75.94-79.21,150.8-167.57,222.47-262.65,127-168.53,208.63-311.26,230.6-351a16.46,16.46,0,0,0-18.84-23.82c-93.26,26.29-229,126.17-237.08,132.19-157,105.44-331.17,309.09-499.6,506-28.67,33.52-56.77,66.37-84.34,98.23l.48-46.37c137-243.32,217.82-424.53,261.56-533.81,53.07-132.63,75.34-217.28,78.48-252.29a16.47,16.47,0,0,0-27.27-13.83c-102.49,89.8-198.07,203.32-284.48,337.8l13.86-176.32c2-7,7.75-29.27,6.23-44-.65-6.21-2.54-12-4.38-17.65-3.21-9.86-5-16.22-2.28-21.59,8.07-16.13,10-21.48,5.57-48.14-.38-4,.14-29.91,7.63-157.09l107-155.35c34.79,66.3,102.32,128.61,200.83,185.28,78.89,45.39,154.38,73.51,183.18,83.49a16.46,16.46,0,0,0,21.51-18.89c-9-44.31-34.25-88.27-75.06-130.67-32.16-33.43-74.08-66-124.59-96.89-52.44-32-103.58-55.65-135.53-69.19,54.73-8.81,133.06-19.24,148-21.21l225,139.85a17.76,17.76,0,0,0,1.72.93c186,87.29,300.75,73.29,341.46,63.22a16.48,16.48,0,0,0,5-29.78c-37.58-24.59-132.58-85.93-133.54-86.55l-.24-.15c-133.52-81-228.13-113.51-286.66-126.34,28.56-2.78,71.28-4.61,74.9-4.76,13,.12,25.64.17,38.09.17,384.36,0,508.95-53.73,545.1-77.42A16.35,16.35,0,0,0,3129.19,933.49ZM524.26,997.23c-2-37.15-4-74.48-6.13-111.38a15.73,15.73,0,0,1,21.66-15.44,386.92,386.92,0,0,1,41,19.6c38.62,21.35,91.75,59.82,125.52,121.83,57.26,105.16,69.82,185.31,72.12,224.68-36.91-44.82-131.5-152.2-248.75-229.39a12.4,12.4,0,0,1-5.42-9.84Zm1002,1970.18c22.19-21.59,62.53-60.08,106.1-97.9l-6.12,116.41A669.13,669.13,0,0,0,1526.23,2967.41Zm125.82-92a41.06,41.06,0,0,1,23.93-35.21,280.19,280.19,0,0,1,33-12.45c30-9.27,76.59-18.58,138.78-15.92a34.62,34.62,0,0,1,33.06,34.33c.46,55.91,1.52,130.66,3.17,223.24a20.9,20.9,0,0,1-32.38,17.82c-59.19-39-108-62.27-141.09-75.6-15.14-6.1-28.15-10.62-38.84-14a34.53,34.53,0,0,1-24.21-34.79ZM2968.39,980.14c-106.76,20-251.28,29.31-429.56,27.72h-.49c-3.12.12-76.71,3.17-98.89,7.92-15.06,3.23-32.38,6.46-41.59,8.13a10.64,10.64,0,0,0-8.81,11.4,10.31,10.31,0,0,0,10.44,9.26c11.75-.15,45.19,1.37,101.48,18.55,70.88,21.62,151.36,59.59,239.21,112.86,2.7,1.75,48.31,31.2,88.25,57.09,13.29,8.62,7.5,29.21-8.34,29.66a403.22,403.22,0,0,1-54-2.27c-67.06-7.12-140.88-29.42-219.45-66.27l-225.88-140.41a16.51,16.51,0,0,0-10.84-2.35c-22.4,3-136.37,18.12-184.69,27.51a10.27,10.27,0,0,0-8.12,7.52,10,10,0,0,0,6.34,11.77c.8.29,81,29.4,164.91,80.67,63.73,38.94,140.37,97.58,175.08,169.54,7.2,14.91-7.79,30.87-23.16,24.71C2350.89,1337.31,2171,1252,2108.1,1125.34a16.47,16.47,0,0,0-28.33-2l-110.88,161a16.42,16.42,0,0,0-2.87,8.38c-9,153.07-8,159.36-7.48,162.38,3.58,21.48,2.89,22.86-3.71,36.06s-2.27,26.19,1.16,36.73c1.58,4.84,3.07,9.41,3.49,13.51a57.68,57.68,0,0,1-.57,12.76,33.37,33.37,0,0,1-28.29,28.69c-16.45,2.36-43,3.34-85.14-1a10,10,0,0,0-11,9.1,10.22,10.22,0,0,0,9.28,10.83,533.53,533.53,0,0,0,54.16,3.1c9.85,0,18.4-.39,25.83-1.07a23.66,23.66,0,0,1,25.71,25.42L1938.33,1771a123.23,123.23,0,0,1-15.48,50.81c-46.91,83.3-140.06,255.38-192.68,397.57a10,10,0,1,0,18.75,6.94c69.79-188.57,211.88-430.84,219.51-443.78,75.3-119.07,157.71-221.81,245.68-306.32,11.1-10.67,29.21,0,25.24,14.93-11.71,43.89-32.56,107.41-65.36,189.38-43.64,109-124.47,290.17-261.67,533.66a10,10,0,0,0-1.29,4.8l-.39,37.55a94.43,94.43,0,0,1-23.55,61.41c-34.31,39-67.81,76.12-100.57,110.68a10.24,10.24,0,0,0-.33,13.91,10,10,0,0,0,14.61.1c72.66-76.64,148.73-165.58,229.25-259.73,167.64-196,341-398.68,495.75-502.56l.39-.27c1.14-.85,93.9-69.4,177.21-108.42,14.76-6.91,29.6,9.32,21.33,23.37-90.69,154-344.41,548.36-701.65,806.89-43.61,31.56-84.37,62.81-121.15,92.87-70,52.48-172.75,148.22-233.89,229.94a10.18,10.18,0,0,0,1.26,13.78,10,10,0,0,0,14.57-1.56c46.14-61.73,116.61-131.72,178.05-184.25,13-11.11,33-1.5,32.47,15.58l-1.21,40c0,.17,0,.34,0,.51a10,10,0,0,0,13.07,13.67c161.2-74.57,357.21-125.84,616.87-161.34,134.43-18.38,236.22-36,305.8-49.3,12.82-2.45,19.69,14.52,8.77,21.67-174.21,114.05-541.67,332.66-828.95,355.41-39.92,3.16-76.63,5.2-112.22,6.23a16.23,16.23,0,0,0-3.51.49,9.05,9.05,0,0,0-1.28-.25c-87.45-10.52-151.54,1.61-189.89,13.64-42.19,13.23-63.46,29.12-64.34,29.79-.1.08-.18.16-.28.23l-.14.11c-57.2,48.33-112.27,101.61-133.54,122.51a14.59,14.59,0,0,0-4.45,11.62,14.29,14.29,0,0,0,13.18,13c16.7,1.23,61.88,5.85,120.59,22.18l.1,0a9.64,9.64,0,0,0,1.12.23c.25,0,25.86,4,69.88,21.82,40.67,16.47,105.8,48.45,185.14,107.36.28.21.57.39.86.57a16.79,16.79,0,0,0,1.26,1.12,712,712,0,0,1,114.49,115.11c106.46,134.64,150.45,208.87,168.36,248.71a23.44,23.44,0,0,1-24,32.91c-52.33-5.84-144.19-21.62-234-64a16.65,16.65,0,0,0-20.88,5.79,15.12,15.12,0,0,0-2.64,9.13c.42,18.65.8,34.87,1.11,48.1a28.36,28.36,0,0,1-28.35,29H1647.91a30.4,30.4,0,0,1-30.37-32c2.8-53.46,8-151.76,13.79-262.74.67-12.7,16.78-17.74,24.55-7.66,38.36,49.69,94.73,121.07,121.47,146.82a10,10,0,0,0,14.58-.76,10.2,10.2,0,0,0-.91-13.85c-40.8-39.43-157.12-194-158.29-195.53-.23-.3-.47-.58-.72-.85s-.5-.74-.77-1.1l-12.56-16.54c-59-77.77-101.72-134-136.69-154.18a16.5,16.5,0,0,0-24.74,14.05c-.17,9.91-2.17,15.88-14.13,27.21-4.84,4.58-17.69,16.77-57,236.24-16,89.13-30.5,180.78-37.66,230.71a32,32,0,0,1-31.37,27.45c-192.32,1.8-381.23,3.12-391.79,2.19a17.73,17.73,0,0,0-2.25-.14l-77.63.47a30.2,30.2,0,0,1-30.2-26.84c-7.52-67-22.48-189-34.47-215.34-11.1-24.41-3.43-41.85-.82-46.61a16.32,16.32,0,0,0,1.92-9.74c-1-8.28-6-52.82-13.48-116.28a16.45,16.45,0,0,0-7.33-11.86c-24.18-15.86-47.29-31.2-68.68-45.58-57.94-38.94-64.48-42.19-232-125.47l-51-25.35c-156.87-78.06-277.28-252-328.5-335.7C74,2594,85,2580.2,97.61,2584.51c47.63,16.32,125.36,49.1,233.3,113.87,123.17,73.9,199.91,171.46,245.76,229.76q3.6,4.58,6.94,8.8a10.22,10.22,0,0,0,13.53,2.43,10,10,0,0,0,2.6-14.26c-11.87-16.3-25.77-37.85-40.48-60.67-15.13-23.47-30.78-47.73-45.86-68.85-54.52-76.32-113-113.72-115.43-115.27l-.3-.18c-134.73-78.72-235.08-180.63-298.27-302.88-33.3-64.45-49.55-122.2-57.47-162.82-2.41-12.37,12.84-20.23,21.51-11.08,97.11,102.57,296.44,353,298.73,355.86a10,10,0,0,0,17-10.21c-44.05-101.28-70.62-222.83-79-361.28A16.46,16.46,0,0,0,288.68,2173a16.87,16.87,0,0,0-15.23,2.84c-13,9.82-25,18.83-35.9,26.89-6.29,4.66-14.48-2.61-10.59-9.4,69.21-120.91,216.09-368.94,309.16-464.84a10,10,0,0,0-14.35-13.93c-53.16,54.77-128.38,161.9-223.58,318.43-31.73,52.16-60.48,101.37-82.59,139.88-3.46,6-12.7,2.4-11.13-4.37,15.26-65.46,46.23-165,108.6-286.72,57.1-111.39,143.75-218.37,264.88-327a16.41,16.41,0,0,0,5.2-15.22,429.78,429.78,0,0,0-9.67-43.12c0-.06,0-.12-.05-.18-.08-.25-7.83-25-10-41.94a43.32,43.32,0,0,0-18.17-29.75c-10.21-7.18-15.12-17.74-14.57-31.37,0-1,.57-5.21,1.08-9.3,2.19-17.63,6.75-54.33,5.87-84.73v-.22a16.39,16.39,0,0,1,20.94-16.21c34.58,10,86.83,23.4,120.75,24.4,24,.71,74,2.18,86.59,17.6,1.68,2,3.77,5.57,2.59,12.35-6.76,38.91-30.67,69.53-75.23,96.33a10.24,10.24,0,0,0-3.78,13.8,10,10,0,0,0,13.78,3.53c26.78-16.07,46.74-33.49,61-53.25a134.64,134.64,0,0,0,23.93-57c1.91-11-.38-20.56-6.81-28.43-16.95-20.76-59.43-23.7-101.49-24.94-50.4-1.48-149.36-33.87-150.35-34.19a9.73,9.73,0,0,0-2.22-.45,15.55,15.55,0,0,0-2.43-1c-234.33-71.68-388.46-216.38-460.1-297.13-5.74-6.47,1.41-16.19,9.3-12.64,102.47,46.06,292,132.38,365.37,173.14a10,10,0,1,0,9.72-17.48C375.88,1056.68,188.34,971.2,85,924.72c-10.35-4.65-6.77-20.17,4.57-19.81,50,1.63,100.05,10.05,100.8,10.18l.51.07c110.86,13,214.82,45.79,309,97.37a16.55,16.55,0,0,0,6.38,2,10,10,0,0,0,3.26,3.39c129.86,82.8,233.36,206,262,241.82a15.17,15.17,0,0,0,11.91,5.8,15.44,15.44,0,0,0,15.47-15.85c-.25-33.72-8.13-124.55-75-247.37C687.68,935.81,631,894.85,589.9,872.2c-44.47-24.49-80.11-33.28-81.61-33.65a10.26,10.26,0,0,0-2.26-.27,16.14,16.14,0,0,0-2.58-.82C279.53,786.13,140.74,660.09,77.37,588.65,67,576.92,76.37,558.49,92,560.1c175.9,18.15,317.45,119.22,389.35,181.31a16.46,16.46,0,0,0,19.78,1.34,16.89,16.89,0,0,0,7.42-15.31c-6.17-95.33-15.12-221.43-22.79-281.75a7.72,7.72,0,0,1,7.66-8.69h0l211.31.61a19.08,19.08,0,0,1,17.65,26.19,448.4,448.4,0,0,0-29.05,111.09c-4.48,36.25-2.5,60-2.1,64,1.3,181.62-35.13,201.69-37.21,202.67a10.12,10.12,0,0,0-1.25.4c-6.31,2.53-31.86-4.78-83.51-50.42a10.24,10.24,0,0,0-13.92.14,10,10,0,0,0,.4,14.6c42.11,37.26,73.8,56,94.47,56a27.19,27.19,0,0,0,9.15-1.47c11.39-3,53.33-27.13,51.86-222.59a8.77,8.77,0,0,0-.06-1c0-.24-2.52-23.73,2.11-60.59,4.26-34,15.62-86.54,45.5-144.28a9.72,9.72,0,0,0,.83-2.25A15.37,15.37,0,0,0,760.7,428c68.48-151.86,181.94-274.69,345.92-374.16,7.52-4.55,16.09,4.08,11.51,11.57-59.83,98-178.27,290.41-247.47,392.83a10,10,0,1,0,16.57,11.19c72.24-106.91,197.8-311.34,255-405.09A6.92,6.92,0,0,1,1155,67.67v.22C1159.13,165.12,1163,257,1045,427.14l-40.58,50.91c-.27.33-.51.67-.75,1a9.14,9.14,0,0,0-.71.81c-2,2.58-204.8,258.88-256.87,323.21a98.29,98.29,0,0,0-15.88,25.78c-8.82,21.17-7.95,41.85,2.52,59.8,21.27,36.46,83.9,160.1,97.54,235.87A632.82,632.82,0,0,1,840,1226.18a49.28,49.28,0,0,0,42.56,47.91c20.94,2.77,51.32,7.31,77.19,13.27a34.58,34.58,0,0,0,7.88.9,35.15,35.15,0,0,0,34.69-40.5c-4.12-26.92-7.07-58.23-8.79-93.08a10,10,0,1,0-20,1c1.74,35.4,4.75,67.3,8.94,94.82a15.53,15.53,0,0,1-4.22,13.34,14.85,14.85,0,0,1-14,4c-26.63-6.13-57.69-10.79-79.06-13.61A29.16,29.16,0,0,1,860,1225.91,654.5,654.5,0,0,0,849.9,1121c-14.12-78.43-78.2-205.13-99.95-242.41-17.55-30.09,9.92-61,11.08-62.26.14-.15.27-.31.4-.47,37.93-46.85,156.73-196.73,218.7-275a12.16,12.16,0,0,1,21.7,7.34c1.83,104.62,4.6,258.83,7.47,401.64a10,10,0,0,0,19.23,3.64C1088.68,809,1203.91,629,1261.27,543.12a13.17,13.17,0,0,1,23.91,4.94c15.91,87.06,36,265.66-15.88,455.45-56.62,206.94-156.58,285.75-185.87,305a16.47,16.47,0,0,0-.71,27c50.21,36.85,150.4,123.84,191.14,159.53a16.46,16.46,0,0,0,27-9.16c19.68-98.27,37.22-177.92,52.32-237.65a34.4,34.4,0,0,1,40.72-25.16c65,14.2,193.13,39.15,292.37,39.22a10.25,10.25,0,0,0,10.37-9.35,10,10,0,0,0-10-10.65c-103.5,0-239.89-27.82-299.53-41.21a37.26,37.26,0,0,1-26.39-22.82c-1.28-3.24-2.73-6.41-4.2-9.46-8.49-17.59-12.58-43.88,16.17-69.27a16.49,16.49,0,0,0,.85-23.85c-2.67-2.74-5.73-7-5.13-11.81.84-6.6,8.19-14.43,20.71-22.06,11.48-7,13.24-16.09,12.69-22.49-.59-6.83-3.86-13.06-7.31-19.67-7.08-13.52-11-22.39-2.33-33.93,4.4-5.86,16.09-21.44,58.72-259.75,17-94.86,32.95-192.3,41.08-242.61a33,33,0,0,1,32.55-27.77l235.1-.5,168.57,1.14a27.29,27.29,0,0,1,26.57,32.69c-25.34,125.5-96,476-97.12,489.44-1.45,16.87-2,32.1-2.53,46.84-1.18,32.79-2.21,61.12-12.53,96.22-4,13.62-7,24-9.22,32.21a30.62,30.62,0,0,1-35.87,22.06c-70.85-14.83-209.34-43-313.14-59.44a10,10,0,0,0-11.46,8.51,10.21,10.21,0,0,0,8.68,11.3c104.31,16.49,243.79,45,313.76,59.61a31.39,31.39,0,0,1,20.31,47.11c-2.73,4.46-5.63,8.83-8.58,12.89-6.54,9-7.23,15.6-7.89,22-.8,7.66-1.79,17.2-17,40.06-28.49,42.72-57.32,172.24-58.53,177.73a10,10,0,0,0,19.53,4.32c.29-1.31,29.22-131.33,55.64-171,18-27,19.31-39.75,20.28-49.09.54-5.25.79-7.64,4.17-12.29,5.79-8,34-48.56,28-74a5,5,0,0,0-.12-.53,3,3,0,0,0-.07-.32l0-.15v0c-3.9-14.3-4-15.07,10.8-65.34,11-37.51,12.15-68.42,13.33-101.14.52-14.49,1.06-29.48,2.46-45.82,1.42-13.66,68.13-345.27,99.63-501.19a27.64,27.64,0,0,1,27.29-22.17h0a16.37,16.37,0,0,1,16.25,17.31c-3.75,65.5-14.75,239.53-26.31,422.46-5.56,87.94-11.28,178.4-16.44,260.84a10.16,10.16,0,0,0,3.51,8.47,10,10,0,0,0,13-.11c54.37-47.48,171.51-157.88,196-197.93a16.39,16.39,0,0,0,.23-16.68c-7.36-12.85-31.68-61.06-35.66-142-4.52-92,18.36-191.36,68.06-296,5.19-10.91,21.44-8.22,22.84,3.79,10.41,89.16,26.21,244.29,22.05,333.75a10,10,0,0,0,19.47,3.65c.22-.67,23.1-68,67.32-147.11,34.6-61.93,88.71-142.18,160-197.51,11.15-8.65,27,1.53,23.9,15.31-10,44.37-27.39,108.25-55.65,173.27C2432.41,795,2366.52,871.73,2287.26,906.47a16.21,16.21,0,0,0-4.31,2.75l-149.4,132.63a10.41,10.41,0,0,0,8.61,18.05c13.18-2.2,130.14-21.79,176.92-35a16.33,16.33,0,0,0,7.66-4.76c7.45-8.24,75.55-82.74,170.8-158.67,100.8-80.36,198-135.18,284.27-160.71,12.88-3.81,22.74,11.64,13.88,21.74-80.74,92-187.43,178.22-311.39,251.26a10,10,0,0,0,4.38,18.59c21.06,1.47,63.08-6.57,121.25-17.68,119.28-22.8,293.68-56.13,452.46-40.92,11.83,1.14,13.87,17.59,2.68,21.58C3042.45,963.38,3011.18,972.14,2968.39,980.14Z"/></g></g></svg>