<svg xmlns="http://www.w3.org/2000/svg" viewBox="0 0 4034.18 2997.36"><defs><style>.cls-1{fill:#fff;}</style></defs><g id="Layer_2" data-name="Layer 2"><g id="Layer_6" data-name="Layer 6"><path class="cls-1" d="M1076.25,847.63c-53.59-38.11-121-72.43-200.33-102-63-23.49-133.76-44.11-210.25-61.28-130-29.17-230.29-38.15-234.49-38.52a20,20,0,0,0-3.49,39.85c1,.09,102.25,9.17,229.77,37.83C732.09,740.26,801,760.35,862.24,783.2c76,28.35,140.15,61,190.82,97a20,20,0,0,0,23.19-32.59Z"/><path class="cls-1" d="M1575.42,1179.71c-19.16,3.83-43.38-2.57-66.45-17.56-24.27-15.78-44.7-39.51-56-65.1-4.72-10.65-8.89-22.49-13.31-35-10.42-29.56-21.2-60.12-42-84.64-25-29.54-58.89-43.26-103.44-42-54.82,1.6-98.56,33.19-126.49,91.36-19.93,41.53-24.73,82.2-24.93,83.91a20,20,0,0,0,39.74,4.55c0-.36,4.41-36.5,21.67-72,21.31-43.87,52-66.69,91.17-67.83,70.63-2,87.25,45.21,106.54,99.93,4.48,12.72,9.12,25.86,14.47,37.94,14.62,33,39.77,62.24,70.82,82.43,25.39,16.5,52,25.13,76.66,25.13a99,99,0,0,0,19.43-1.89,20,20,0,0,0-7.84-39.22Z"/><path class="cls-1" d="M3991,960.47c-36.76-54.86-92.54-92.23-142.25-121.54-54.09-31.91-63.56-55.31-74.53-82.42-12.16-30-25.94-64.11-90.56-107-31.09-20.64-62.88-32.93-97.19-37.57-30-4-58-1.92-85.09.13-53.23,4-103.51,7.85-164.62-36.67-28.36-20.67-45.91-42.28-56.92-70.09-10.45-26.38-14.43-57.14-19-92.76-6.52-50.36-14.63-113-44.55-190.57-29.11-75.49-97.22-136.16-197-175.47C2948.4,18.54,2862.52,2.1,2777.51.19c-79.51-1.79-150.22,9.37-194,30.63C2485,78.65,2434.61,130.9,2376.32,191.39c-46.91,48.69-100.08,103.88-190.09,168.43-18.69,13.41-43.8,26.54-72.88,41.76C2054.24,432.5,1980.67,471,1927.13,532.5c-29.54,33.93-50.54,72.3-62.42,114-13.52,47.51-15.79,101.21-6.74,159.6a499.58,499.58,0,0,1,5.28,49.86c-62-29.72-217-101.93-415.39-178.9-151.65-58.84-298.69-108.94-437-148.93-173.23-50.07-333.3-84.34-475.76-101.86q-96.35-11.83-176-12.13h-.58c-58.53-.19-110,4.31-153.95,13.52-74.14,15.54-129,44.84-163,87.09C9.83,554.13-3.84,604.38.92,664.12c4,50,19.93,95.54,28.5,120C37.79,808,50,830.61,62.84,854.51c22.26,41.29,47.5,88.09,63.09,158.83,18.32,83.1,19.68,183,4.16,305.43-49.79,392.81-89.75,819-8.59,1001.58,46,103.41,80,136.61,104.88,160.86,18.68,18.22,29,28.25,36.91,64,5.06,22.75,7.86,41.38,10.33,57.81,7.43,49.4,12.34,82,65.69,139.48,18.55,20,54.49,47.42,98.61,75.27,37.07,23.41,97.71,58.27,176,91.4,100,42.32,244.7,88.23,401.54,88.23a762.12,762.12,0,0,0,87-4.89c46.36-5.34,111.77-24.71,143.55-61.76a487.18,487.18,0,0,0,35.54-46.77,40,40,0,0,1,28.81-17.59c33.5-3.8,122.9-17.4,229.33-61.54,122.71-50.88,226.36-124.41,308.07-218.55,97.89-112.78,177.12-220.16,247-314.9,116.23-157.53,208-282,315.61-334.22,85.82-41.68,154.1-77.24,208.36-115.3,51-35.76,90.89-74.61,128.33-125.07,143.49-58.26,225.21-115.17,262.94-182.51,38.65-69,27.42-140.82,14.42-224l0-.16c-26.33-168.54,15.13-199.18,35.06-213.9,16.09-11.9,49.21-19.77,86.94-10.55a152.37,152.37,0,0,1,60.16,30.25c21.17,17.2,38.91,40.26,52.74,68.54,33.75,69,89.75,119.2,130.78,149.18,69.52,50.79,153.78,86.84,250.45,107.14a371.28,371.28,0,0,0,76.55,8.19c78.69,0,138.2-27.13,177.37-53.43a324.7,324.7,0,0,0,88.85-89.45c22.18-33.46,37.41-70.22,44-106.28C4043.31,1092.5,4031.44,1020.77,3991,960.47ZM3988,1172.55c-5.64,30.79-18.79,62.39-38,91.39a284.54,284.54,0,0,1-77.8,78.34c-44.63,30-119.61,61.1-223.4,39.3-91.08-19.13-170.17-52.87-235.08-100.29-67.75-49.49-101.8-100.44-118.45-134.46-30.81-63-80.29-105.63-139.33-120.06-44.92-11-91-4.38-120.21,17.23-17.62,13-39.36,33.39-51.1,75.69s-11.66,100.06.3,176.55l0,.17c12.34,79,22.09,141.4-9.79,198.3-16.93,30.21-45.16,58.28-86.31,85.8-26.46,17.7-58.24,35.2-96,52.81l1.3-1.81-65.21,27.2c-.8.33-81.64,33.39-233.47,39.8-89.24,3.76-185.19-2.28-285.17-18-125.1-19.63-256.9-54.5-391.74-103.63a20,20,0,1,0-13.69,37.58q41.26,15,82.15,28.32a32.76,32.76,0,0,1,16.15,50.69A2954.79,2954.79,0,0,1,1680,1960.1a2960.67,2960.67,0,0,1-244.66,231.82c-144.57,122-247.72,183.82-248.75,184.43a20,20,0,0,0,20.46,34.38c4.27-2.55,106.38-63.71,253.28-187.55A3002.72,3002.72,0,0,0,1708.59,1988a2990.13,2990.13,0,0,0,238.86-287.29,58.12,58.12,0,0,1,61.79-21.92,1946.43,1946.43,0,0,0,196.86,41.55c102.9,16,201.75,22.06,293.81,18a1071.58,1071.58,0,0,0,126.51-12.82c16.64-2.74,26.35,18.11,13.61,29.16a543.36,543.36,0,0,1-44.27,34.4c-52.09,36.54-118.77,71.23-202.86,112.07-116.44,56.56-210.83,184.49-330.33,346.46-69.46,94.14-148.19,200.84-245,312.42-77.61,89.42-176.25,159.34-293.18,207.82-95.29,39.52-221,53.38-226.32,54-88.55,10.79-229.3,7.87-300.24-1.5a145.27,145.27,0,0,1-113.38-84.09c-43.23-95.64-78-209.86-103.5-339.48-20.45-104.1-34.91-218.25-43-339.27-13.78-206.46-4-363.3-3.95-364.86a20,20,0,0,0-39.92-2.56c-.1,1.58-10,160.55,3.92,369.49,8.18,122.81,22.85,238.74,43.62,344.58,26,132.77,61.84,250.05,106.37,348.58a185.27,185.27,0,0,0,144.59,107.26c41.36,5.47,103.37,8.83,166.27,8.83,16.13,0,32.32-.23,48.23-.69,15.5-.45,24.28,17.58,14.41,29.55q-2.88,3.48-5.83,6.93c-22.57,26.31-76.86,43.35-117.76,48.06-180.81,20.8-354.49-32.27-468.35-80.44-130.73-55.31-231.27-125.13-260.9-157.05-44.94-48.39-48.45-71.72-55.44-118.21-2.57-17.08-5.48-36.43-10.84-60.54-10.52-47.35-27.08-63.49-48-83.92-22.54-22-53.42-52.08-96.25-148.46-34.89-78.5-48.63-219.76-40.85-419.88,7.23-186.17,31.9-397.3,52.58-560.43,36.45-287.61-26.08-403.59-71.73-488.28-12.64-23.43-23.55-43.67-30.87-64.59-16.37-46.78-54.71-156.32,5.51-231.06a162.28,162.28,0,0,1,37.92-33.77,5.31,5.31,0,0,1,7.21,7.56l-.17.25c-32.34,45.39-24.13,89.21-22.84,95,17,82.62,66.87,166.24,148.08,248.54,63.94,64.79,147.54,129.11,248.48,191.17C662.49,1153.87,827.18,1217.37,828.82,1218a20,20,0,0,0,14.31-37.36c-1.62-.61-163.33-63-331.33-166.37-98.09-60.36-179.06-122.63-240.65-185.09C195.53,752.49,149.37,675.62,134,600.72l-.15-.67c-.51-2.41-6.15-32,17.09-63.86,40.46-55.53,135.7-75.28,208.8-82.05q76.67.36,170.5,11.86c140.3,17.25,298.19,51.07,469.29,100.52,137.15,39.63,283,89.33,433.51,147.71,185,71.74,331.89,139.28,400.15,171.71a47.43,47.43,0,0,1,26.41,50.32,298.76,298.76,0,0,1-9,39.62c-11.69,38.58-31.08,72.33-57.64,100.3-45.56,48-97.42,63-98.29,63.2a20,20,0,0,0,10.54,38.59c2.5-.68,61.84-17.27,115.24-72.65,31.33-32.5,54.21-71.66,68-116.41,17-55.08,20-118.64,9.14-188.92-15.28-98.53,4.28-177.44,59.8-241.23,48.59-55.83,115.53-90.84,174.59-121.74,29.15-15.25,56.69-29.65,77.66-44.69,93-66.69,147.48-123.26,195.58-173.18C2463.06,159,2508.82,111.53,2601,66.8c76.46-37.11,261.06-39.3,403.69,16.91,62.1,24.47,142.76,70.82,174.31,152.64,28.19,73.07,35.63,130.57,42.2,181.31,9.82,75.85,17.57,135.75,92.08,190.05,32.72,23.84,66.08,38.14,102,43.72,31.45,4.89,60.81,2.66,89.21.51,51.06-3.87,99.29-7.53,157.12,30.87,54.31,36.07,64.66,61.64,75.61,88.71,12.55,31,25.52,63.07,91.29,101.86,45.84,27,97,61.16,129.34,109.36C3992.13,1034,4002,1096,3988,1172.55Z"/><path class="cls-1" d="M2644.65,845.15c-33.63-71.59-75.14-113.55-76.89-115.3a20,20,0,1,0-28.29,28.29c.38.38,38.29,38.69,69,104a401.6,401.6,0,0,1,35.12,118.16c6.61,50,3,100.68-10.65,150.72-16.43,60.11-39.15,116-67.52,166.08a591.25,591.25,0,0,1-78.23,108.34c-49.83,54.32-91.46,76.8-91.84,77a20,20,0,1,0,18.63,35.4c1.89-1,46.91-25,101.19-83.72a629.53,629.53,0,0,0,84.3-116c30.36-53.32,54.6-112.73,72-176.58,15.09-55.2,19-111.22,11.73-166.5A441.93,441.93,0,0,0,2644.65,845.15Z"/></g></g></svg>