<svg xmlns="http://www.w3.org/2000/svg" viewBox="0 0 1348.12 3202.63"><defs><style>.cls-1{fill:none;stroke:#fff;stroke-linecap:round;stroke-linejoin:round;stroke-width:21.15px;}</style></defs><g id="Layer_2" data-name="Layer 2"><g id="Layer_18" data-name="Layer 18"><g id="Layer_2-2" data-name="Layer 2"><g id="Layer_14" data-name="Layer 14"><line class="cls-1" x1="450.33" y1="2011.12" x2="424.6" y2="2199.17"/><path class="cls-1" d="M410,2350.67s-46,237.33.29,453.08,129.75,380.05,250,387.94c0,0,176.75,22.33,246.27-283.14,66.88-293.75,25-535.61,25-535.61"/><polyline class="cls-1" points="824.98 1645.69 906.49 2205.82 919.16 2284.58"/><path class="cls-1" d="M540.58,1495.29c20.89-146.22,54.83-417.8,54.83-417.8,20.51-174-65.87-284.59-103.6-349.1-42.47-72.6-165.31-200-142-300,17.71-76.08-52.68-157.36-90.91-202-24.66-28.77-29.43-55.25-21.85-81.14,0,0,14-46.29,67.24-90.26,19-14.15,36.26-29.31,62.88-36.82C491-12.91,567.55,56.35,602.8,138.7c60.28,141.09,117.28,95.88,117.28,95.88,120.55-76.53,208.15,26.62,230.67,135.63,26,126-108.74,252.88-177.44,456.19-32.63,117.17-.58,384.66-.58,384.66l36.91,329.21"/><path class="cls-1" d="M638.34,2230.47s-67.29-193.19-208.56-230.13c0,0-244.52-62.68-321.58-149S52.09,1668,107.57,1674.2s160.9,26.13,160.9,26.13c29.29,7.19,24-11.58-14.26-66.48-37.07-49.11-94.91-137.1-54.84-158.67s75.22,45.72,155.92,26.35c89.89-21.57,192.64,44.7,239.9,104.8,51.47,65.45,55,72.43,61.64,127.89,4.81,39.89,3.09,292.8,3.09,292.8v80.82"/><path class="cls-1" d="M508.27,2870.91c49.34,55.49,74.14,125.08,0,192.4"/><path class="cls-1" d="M400.08,2747.17a679.78,679.78,0,0,0,52.9,64.66"/><path class="cls-1" d="M778.15,2982.51c-1.35-23.45,6-49.72,29.7-77C888,2813,932.51,2759.31,932.51,2759.31"/><path class="cls-1" d="M834.23,3078.41a154.41,154.41,0,0,1-16.42-15.1"/><path class="cls-1" d="M540.58,1494.85s-19.88-51.88-81-71.92c-56.56-18.53-54.54-46-63.79-67.61s-14.24-85.42-49.07-21C314.5,1394,306.39,1443.49,334.13,1502"/><path class="cls-1" d="M806.31,1513.87s-7.7-69.36,69.36-90.94,74-135.61,98.62-114,80.14,89.38,0,289.72-109.92,312.84-109.92,312.84"/><path class="cls-1" d="M394.84,2400s-61.58-61.23-154.06-89S-10.74,2136.4,13,2089.53s150.22,2.76,150.22,2.76,54.56,24.93,67.8-23.64c17-62.15,111.48-4.62,111.48-4.62s73.83,46.52,87.84,86.3"/><path class="cls-1" d="M397.9,2489.55s115.78-13.21,159.61-55.65c29.76-28.82,34.24-56.84,5.81-77.6"/><path class="cls-1" d="M430.8,2176.53s37.68,24.49,22.61,57.4,0,74.66,34.42,87"/><path class="cls-1" d="M400.08,2747.17s17.66-55.05,49.22-73.55c18.68-11,72.6-26,91.78,84.93,14.29,82.69,24.65,145.89,79.45,181.51"/><path class="cls-1" d="M719.16,2942.8c19.32-10.61,46.15-40.23,57.54-100.7C798.61,2725.66,800,2685,854.78,2673.61,910.94,2662,934.22,2738,934.22,2738"/><path class="cls-1" d="M939.88,2512.49s-98.8-34.76-139.9-104.63"/><path class="cls-1" d="M779.44,2307.86s12.32-54.79,79.45-49.34,52.05,6.16,52.05,6.16"/><path class="cls-1" d="M662.42,1550.19c34.24-8.22,26.27-40.59,21.91-68.48-6.84-43.84-9.64-99.61,40.45-136,30.14-21.93,54.68-14.45,54.68-14.45"/><path class="cls-1" d="M717.81,1166.6c15.22,12.45,64.72,53.64,30.77,87.86-45.62,42.11-108.2,78.19-133.53,168.47-3.48,13.86-4.85,34.59-.75,47.27"/><path class="cls-1" d="M568.77,1286.09s16.7-79.12,83.5-131"/><path class="cls-1" d="M661.63,2087.32s67.11,27.39,126-111"/><path class="cls-1" d="M626,1646.23s105.48-50.69,160.27,90.4"/><path class="cls-1" d="M709.16,244.21s-8.94,133.54-13.58,339.15"/><path class="cls-1" d="M380.81,15.41S476.69,142.8,557.48,538.7"/><path class="cls-1" d="M902.72,2153.75s58.9-94.51,134.25-106.84,69.86,60.27,111,58.9,126-63,176.71-28.76c63.32,42.78-119.18,191.77-267.12,256.16,0,0-102.71,46.57-117.82,84.93"/><path class="cls-1" d="M212.84,1473.58s55.63,104.83,161.12,135"/><path class="cls-1" d="M289,1703.07s75.33,39.73,142.46,157.54"/></g></g></g></g></svg>